<svg width="39" height="39" viewBox="0 0 39 39" fill="none" xmlns="http://www.w3.org/2000/svg">
<path d="M19.2099 0.40598C8.98557 0.562003 0.628384 8.86774 0.406226 19.0976C0.328424 22.5384 1.18634 25.9359 2.88841 28.9273C2.9553 29.0442 3.053 29.1404 3.17092 29.2056C3.28884 29.2707 3.42237 29.3021 3.55699 29.2965C3.69152 29.2908 3.82195 29.2481 3.93391 29.1733C4.04596 29.0985 4.13517 28.9943 4.19199 28.8721C5.57085 25.9436 6.28374 22.7458 6.27938 19.5089C6.27619 17.5262 6.72042 15.5683 7.57901 13.7812C8.4376 11.9941 9.68839 10.4238 11.2383 9.18726C11.3903 9.06833 11.5642 8.98063 11.7502 8.92901C11.9361 8.87731 12.1304 8.86279 12.3219 8.88629C12.5134 8.90971 12.6985 8.97064 12.8664 9.06556C13.0345 9.16057 13.1821 9.28764 13.3009 9.43963C13.4199 9.59171 13.5076 9.76561 13.5592 9.95151C13.6109 10.1375 13.6254 10.3318 13.6019 10.5233C13.5785 10.7148 13.5175 10.8999 13.4226 11.0678C13.3276 11.2359 13.2005 11.3835 13.0486 11.5023C11.8504 12.4649 10.884 13.6846 10.2212 15.0712C9.55822 16.4577 9.21562 17.9757 9.21873 19.5126C9.22359 23.9219 8.05447 28.2531 5.83145 32.0612C5.74903 32.2011 5.71538 32.3644 5.73561 32.5255C5.75583 32.6866 5.82893 32.8365 5.94341 32.9516C6.3106 33.3188 6.69432 33.686 7.09088 34.0201C7.17221 34.0884 7.2673 34.1382 7.36969 34.1662C7.47209 34.1942 7.57926 34.1996 7.68401 34.1822C7.78867 34.1647 7.88837 34.1248 7.97616 34.0651C8.06395 34.0054 8.13772 33.9275 8.19245 33.8365C9.81781 31.1383 10.9719 28.1831 11.6055 25.0974C11.6831 24.7157 11.9092 24.3804 12.2341 24.1654C12.559 23.9505 12.9559 23.8732 13.3377 23.9509C13.7194 24.0286 14.0547 24.2547 14.2697 24.5796C14.4847 24.9044 14.5619 25.3014 14.4842 25.6832C13.774 29.1648 12.4652 32.4968 10.6159 35.5311C10.5638 35.6174 10.5299 35.7135 10.5165 35.8134C10.5031 35.9132 10.5104 36.0149 10.5379 36.1118C10.5655 36.2087 10.6127 36.299 10.6766 36.3769C10.7406 36.4549 10.8199 36.5188 10.9096 36.5648C11.3631 36.7942 11.8276 37.0072 12.2995 37.2018C12.4624 37.2716 12.645 37.2802 12.8137 37.2258C12.9825 37.1715 13.1259 37.058 13.2174 36.9062C16.3716 31.6671 18.036 25.6665 18.0312 19.5511C18.0274 19.1741 18.166 18.8095 18.4192 18.5301C18.6724 18.2507 19.0216 18.0771 19.3972 18.0438C19.5985 18.0296 19.8006 18.0572 19.9909 18.1246C20.1811 18.1921 20.3554 18.298 20.5028 18.4359C20.6503 18.5737 20.7678 18.7404 20.848 18.9257C20.9281 19.1109 20.9692 19.3107 20.9687 19.5126C20.976 25.7564 19.3825 31.8979 16.3403 37.3505C16.2818 37.4549 16.2497 37.5721 16.2467 37.6918C16.2438 37.8115 16.2702 37.9301 16.3236 38.0372C16.377 38.1444 16.4558 38.2369 16.5531 38.3066C16.6504 38.3764 16.7633 38.4213 16.882 38.4374C17.4389 38.5145 18.0025 38.5671 18.5728 38.5952C18.71 38.6004 18.8458 38.567 18.9648 38.4988C19.0839 38.4307 19.1816 38.3305 19.2467 38.2098C22.3 32.4983 23.9003 26.123 23.9062 19.6466C23.9155 17.2139 22.0152 15.1504 19.5845 15.1045C18.9997 15.0932 18.4186 15.1986 17.8749 15.4143C17.3312 15.63 16.8359 15.9518 16.418 16.3609C16 16.77 15.6676 17.2582 15.4403 17.7972C15.2129 18.3361 15.0951 18.9148 15.0937 19.4997C15.091 19.8665 14.9529 20.2193 14.7059 20.4904C14.4588 20.7615 14.1203 20.9318 13.7553 20.9685C13.5518 20.9866 13.3467 20.962 13.1532 20.8964C12.9597 20.8308 12.782 20.7254 12.6314 20.5872C12.4809 20.449 12.3609 20.2809 12.2791 20.0936C12.1973 19.9063 12.1555 19.704 12.1562 19.4997C12.1562 18.5288 12.3487 17.5674 12.7226 16.6714C13.0964 15.7754 13.6443 14.9624 14.3343 14.2795C15.0245 13.5964 15.8432 13.0571 16.7431 12.6927C17.643 12.3282 18.6062 12.1457 19.5771 12.156C23.6162 12.1982 26.8621 15.6754 26.8419 19.7127C26.824 25.701 25.5401 31.6179 23.0746 37.0751C23.0185 37.2009 22.999 37.3398 23.0181 37.4761C23.0371 37.6123 23.0941 37.7405 23.1826 37.8459C23.2711 37.9514 23.3873 38.0299 23.5181 38.0725C23.6491 38.115 23.7892 38.12 23.9228 38.0867C24.5597 37.9357 25.1885 37.7518 25.8065 37.536C25.9028 37.5017 25.9908 37.4479 26.0652 37.3777C26.1395 37.3075 26.1983 37.2226 26.2379 37.1283C27.0928 35.1022 27.7973 33.0158 28.3455 30.8862C28.3938 30.6993 28.4783 30.5238 28.5944 30.3697C28.7105 30.2155 28.8557 30.0856 29.0219 29.9876C29.1882 29.8896 29.3721 29.8253 29.5631 29.7983C29.7542 29.7713 29.9487 29.7823 30.1356 29.8305C30.3224 29.8788 30.498 29.9633 30.6522 30.0793C30.8063 30.1954 30.9361 30.3407 31.0341 30.5069C31.1321 30.6731 31.1965 30.857 31.2235 31.0481C31.2504 31.2392 31.2395 31.4337 31.1912 31.6205C31.0542 32.1554 30.9073 32.6879 30.7506 33.2179C30.7045 33.3704 30.7093 33.5338 30.7643 33.6835C30.8193 33.8331 30.9214 33.9608 31.0553 34.0472C31.1893 34.1337 31.3477 34.1742 31.5066 34.1627C31.6657 34.1512 31.8166 34.0883 31.9367 33.9834C34.914 31.4267 37.0312 28.0148 38.0002 24.2119C38.9691 20.409 38.7428 16.3999 37.3518 12.7303C35.961 9.06061 33.4732 5.90867 30.2269 3.70345C26.9807 1.49823 23.1338 0.34681 19.2099 0.40598ZM32.3515 25.573C32.3069 25.9274 32.1347 26.2534 31.867 26.4899C31.5994 26.7265 31.2547 26.8573 30.8975 26.8582C30.8361 26.8581 30.7749 26.8545 30.7139 26.8471C30.5225 26.8233 30.3376 26.762 30.1698 26.6666C30.0021 26.5714 29.8547 26.444 29.7362 26.2917C29.6178 26.1395 29.5304 25.9653 29.4792 25.7793C29.4281 25.5934 29.414 25.3991 29.438 25.2076C29.6721 23.3195 29.7898 21.4188 29.7905 19.5162C29.7865 16.7907 28.7021 14.1778 26.7748 12.2506C24.8476 10.3233 22.2347 9.23887 19.5092 9.23493C19.0796 9.23476 18.6504 9.26112 18.224 9.31391C17.8372 9.36259 17.4468 9.25566 17.1388 9.01646C16.8309 8.77735 16.6305 8.42569 16.5818 8.03886C16.5331 7.65195 16.64 7.2616 16.8792 6.95367C17.1183 6.64565 17.47 6.44531 17.8568 6.39663C19.7179 6.16507 21.6068 6.33167 23.3986 6.88535C25.1904 7.43894 26.8441 8.36702 28.2501 9.60799C29.6562 10.849 30.7825 12.3745 31.5545 14.0837C32.3264 15.7927 32.7264 17.6463 32.728 19.5217C32.7275 21.5447 32.6018 23.5656 32.3515 25.573Z" fill="#BDBDBD"/>
</svg>
