<svg width="282" height="139" viewBox="0 0 282 139" fill="none" xmlns="http://www.w3.org/2000/svg">
<rect x="0.5" y="0.5" width="281" height="138" rx="29.5" fill="#303030" stroke="#262626"/>
<path d="M36.4894 40.6319C36.596 38.4986 37.3427 36.8559 38.7294 35.7039C40.1374 34.5306 41.9827 33.9439 44.2654 33.9439C45.8227 33.9439 47.156 34.2212 48.2654 34.7759C49.3747 35.3092 50.2067 36.0452 50.7614 36.9839C51.3374 37.9013 51.6254 38.9466 51.6254 40.1199C51.6254 41.4639 51.2734 42.6053 50.5694 43.5439C49.8867 44.4613 49.0654 45.0799 48.1054 45.3999V45.5279C49.3427 45.9119 50.3027 46.5946 50.9854 47.5759C51.6894 48.5573 52.0414 49.8159 52.0414 51.3519C52.0414 52.6319 51.7427 53.7733 51.1454 54.7759C50.5694 55.7786 49.7054 56.5679 48.5534 57.1439C47.4227 57.6986 46.0574 57.9759 44.4574 57.9759C42.0467 57.9759 40.084 57.3679 38.5694 56.1519C37.0547 54.9359 36.2547 53.1439 36.1694 50.7759H40.5214C40.564 51.8213 40.916 52.6639 41.5774 53.3039C42.26 53.9226 43.188 54.2319 44.3614 54.2319C45.4494 54.2319 46.2814 53.9333 46.8574 53.3359C47.4547 52.7173 47.7534 51.9279 47.7534 50.9679C47.7534 49.6879 47.348 48.7706 46.5374 48.2159C45.7267 47.6613 44.468 47.3839 42.7614 47.3839H41.8334V43.7039H42.7614C45.7907 43.7039 47.3054 42.6906 47.3054 40.6639C47.3054 39.7466 47.028 39.0319 46.4734 38.5199C45.94 38.0079 45.1614 37.7519 44.1374 37.7519C43.1347 37.7519 42.356 38.0293 41.8014 38.5839C41.268 39.1173 40.9587 39.7999 40.8734 40.6319H36.4894ZM70.5506 58.1039C68.844 58.1039 67.308 57.7306 65.9426 56.9839C64.5773 56.2159 63.5 55.1386 62.7106 53.7519C61.9426 52.3653 61.5586 50.7653 61.5586 48.9519C61.5586 47.1386 61.9533 45.5386 62.7426 44.1519C63.5533 42.7653 64.652 41.6986 66.0386 40.9519C67.4253 40.1839 68.972 39.7999 70.6786 39.7999C72.3853 39.7999 73.932 40.1839 75.3186 40.9519C76.7053 41.6986 77.7933 42.7653 78.5826 44.1519C79.3933 45.5386 79.7986 47.1386 79.7986 48.9519C79.7986 50.7653 79.3826 52.3653 78.5506 53.7519C77.74 55.1386 76.6306 56.2159 75.2226 56.9839C73.836 57.7306 72.2786 58.1039 70.5506 58.1039ZM70.5506 54.1999C71.3613 54.1999 72.1186 54.0079 72.8226 53.6239C73.548 53.2186 74.124 52.6213 74.5506 51.8319C74.9773 51.0426 75.1906 50.0826 75.1906 48.9519C75.1906 47.2666 74.7426 45.9759 73.8466 45.0799C72.972 44.1626 71.8946 43.7039 70.6146 43.7039C69.3346 43.7039 68.2573 44.1626 67.3826 45.0799C66.5293 45.9759 66.1026 47.2666 66.1026 48.9519C66.1026 50.6373 66.5186 51.9386 67.3506 52.8559C68.204 53.7519 69.2706 54.1999 70.5506 54.1999ZM99.5249 40.0879L88.5489 66.1999H83.7809L87.6209 57.3679L80.5169 40.0879H85.5409L90.1169 52.4719L94.7569 40.0879H99.5249ZM105.9 34.1359V57.8159H101.42V34.1359H105.9ZM112.078 37.9759C111.289 37.9759 110.627 37.7306 110.094 37.2399C109.582 36.7279 109.326 36.0986 109.326 35.3519C109.326 34.6053 109.582 33.9866 110.094 33.4959C110.627 32.9839 111.289 32.7279 112.078 32.7279C112.867 32.7279 113.518 32.9839 114.03 33.4959C114.563 33.9866 114.83 34.6053 114.83 35.3519C114.83 36.0986 114.563 36.7279 114.03 37.2399C113.518 37.7306 112.867 37.9759 112.078 37.9759ZM114.286 40.0879V57.8159H109.806V40.0879H114.286ZM128.688 57.8159L122.672 50.2639V57.8159H118.192V34.1359H122.672V47.6079L128.624 40.0879H134.448L126.64 48.9839L134.512 57.8159H128.688ZM151.337 58.1039C149.63 58.1039 148.094 57.7306 146.729 56.9839C145.364 56.2159 144.286 55.1386 143.497 53.7519C142.729 52.3653 142.345 50.7653 142.345 48.9519C142.345 47.1386 142.74 45.5386 143.529 44.1519C144.34 42.7653 145.438 41.6986 146.825 40.9519C148.212 40.1839 149.758 39.7999 151.465 39.7999C153.172 39.7999 154.718 40.1839 156.105 40.9519C157.492 41.6986 158.58 42.7653 159.369 44.1519C160.18 45.5386 160.585 47.1386 160.585 48.9519C160.585 50.7653 160.169 52.3653 159.337 53.7519C158.526 55.1386 157.417 56.2159 156.009 56.9839C154.622 57.7306 153.065 58.1039 151.337 58.1039ZM151.337 54.1999C152.148 54.1999 152.905 54.0079 153.609 53.6239C154.334 53.2186 154.91 52.6213 155.337 51.8319C155.764 51.0426 155.977 50.0826 155.977 48.9519C155.977 47.2666 155.529 45.9759 154.633 45.0799C153.758 44.1626 152.681 43.7039 151.401 43.7039C150.121 43.7039 149.044 44.1626 148.169 45.0799C147.316 45.9759 146.889 47.2666 146.889 48.9519C146.889 50.6373 147.305 51.9386 148.137 52.8559C148.99 53.7519 150.057 54.1999 151.337 54.1999ZM167.831 42.6799C168.407 41.8266 169.196 41.1333 170.199 40.5999C171.223 40.0666 172.386 39.7999 173.687 39.7999C175.202 39.7999 176.567 40.1733 177.783 40.9199C179.02 41.6666 179.991 42.7333 180.695 44.1199C181.42 45.4853 181.783 47.0746 181.783 48.8879C181.783 50.7013 181.42 52.3119 180.695 53.7199C179.991 55.1066 179.02 56.1839 177.783 56.9519C176.567 57.7199 175.202 58.1039 173.687 58.1039C172.364 58.1039 171.202 57.8479 170.199 57.3359C169.218 56.8026 168.428 56.1199 167.831 55.2879V57.8159H163.351V34.1359H167.831V42.6799ZM177.207 48.8879C177.207 47.8213 176.983 46.9039 176.535 46.1359C176.108 45.3466 175.532 44.7493 174.807 44.3439C174.103 43.9386 173.335 43.7359 172.503 43.7359C171.692 43.7359 170.924 43.9493 170.199 44.3759C169.495 44.7813 168.919 45.3786 168.471 46.1679C168.044 46.9573 167.831 47.8853 167.831 48.9519C167.831 50.0186 168.044 50.9466 168.471 51.7359C168.919 52.5253 169.495 53.1333 170.199 53.5599C170.924 53.9653 171.692 54.1679 172.503 54.1679C173.335 54.1679 174.103 53.9546 174.807 53.5279C175.532 53.1013 176.108 52.4933 176.535 51.7039C176.983 50.9146 177.207 49.9759 177.207 48.8879ZM201.255 40.0879V57.8159H196.743V55.5759C196.167 56.3439 195.409 56.9519 194.471 57.3999C193.553 57.8266 192.551 58.0399 191.463 58.0399C190.076 58.0399 188.849 57.7519 187.783 57.1759C186.716 56.5786 185.873 55.7146 185.255 54.5839C184.657 53.4319 184.359 52.0666 184.359 50.4879V40.0879H188.839V49.8479C188.839 51.2559 189.191 52.3439 189.895 53.1119C190.599 53.8586 191.559 54.2319 192.775 54.2319C194.012 54.2319 194.983 53.8586 195.687 53.1119C196.391 52.3439 196.743 51.2559 196.743 49.8479V40.0879H201.255ZM214.979 39.8319C217.091 39.8319 218.798 40.5039 220.099 41.8479C221.4 43.1706 222.051 45.0266 222.051 47.4159V57.8159H217.571V48.0239C217.571 46.6159 217.219 45.5386 216.515 44.7919C215.811 44.0239 214.851 43.6399 213.635 43.6399C212.398 43.6399 211.416 44.0239 210.691 44.7919C209.987 45.5386 209.635 46.6159 209.635 48.0239V57.8159H205.155V40.0879H209.635V42.2959C210.232 41.5279 210.99 40.9306 211.907 40.5039C212.846 40.0559 213.87 39.8319 214.979 39.8319ZM224.639 48.8879C224.639 47.0959 224.991 45.5066 225.695 44.1199C226.42 42.7333 227.391 41.6666 228.607 40.9199C229.844 40.1733 231.22 39.7999 232.735 39.7999C234.058 39.7999 235.21 40.0666 236.191 40.5999C237.194 41.1333 237.994 41.8053 238.591 42.6159V40.0879H243.103V57.8159H238.591V55.2239C238.015 56.0559 237.215 56.7493 236.191 57.3039C235.188 57.8373 234.026 58.1039 232.703 58.1039C231.21 58.1039 229.844 57.7199 228.607 56.9519C227.391 56.1839 226.42 55.1066 225.695 53.7199C224.991 52.3119 224.639 50.7013 224.639 48.8879ZM238.591 48.9519C238.591 47.8639 238.378 46.9359 237.951 46.1679C237.524 45.3786 236.948 44.7813 236.223 44.3759C235.498 43.9493 234.719 43.7359 233.887 43.7359C233.055 43.7359 232.287 43.9386 231.583 44.3439C230.879 44.7493 230.303 45.3466 229.855 46.1359C229.428 46.9039 229.215 47.8213 229.215 48.8879C229.215 49.9546 229.428 50.8933 229.855 51.7039C230.303 52.4933 230.879 53.1013 231.583 53.5279C232.308 53.9546 233.076 54.1679 233.887 54.1679C234.719 54.1679 235.498 53.9653 236.223 53.5599C236.948 53.1333 237.524 52.5359 237.951 51.7679C238.378 50.9786 238.591 50.0399 238.591 48.9519Z" fill="#CCCCCC"/>
<path opacity="0.05" d="M3.7957 48.28C4.26237 38.9466 7.52904 31.76 13.5957 26.72C19.7557 21.5866 27.829 19.02 37.8157 19.02C44.629 19.02 50.4624 20.2333 55.3157 22.66C60.169 24.9933 63.809 28.2133 66.2357 32.32C68.7557 36.3333 70.0157 40.9066 70.0157 46.04C70.0157 51.92 68.4757 56.9133 65.3957 61.02C62.409 65.0333 58.8157 67.74 54.6157 69.14V69.7C60.029 71.38 64.229 74.3666 67.2157 78.66C70.2957 82.9533 71.8357 88.46 71.8357 95.18C71.8357 100.78 70.529 105.773 67.9157 110.16C65.3957 114.547 61.6157 118 56.5757 120.52C51.629 122.947 45.6557 124.16 38.6557 124.16C28.109 124.16 19.5224 121.5 12.8957 116.18C6.26904 110.86 2.76904 103.02 2.3957 92.66H21.4357C21.6224 97.2333 23.1624 100.92 26.0557 103.72C29.0424 106.427 33.1024 107.78 38.2357 107.78C42.9957 107.78 46.6357 106.473 49.1557 103.86C51.769 101.153 53.0757 97.7 53.0757 93.5C53.0757 87.9 51.3024 83.8866 47.7557 81.46C44.209 79.0333 38.7024 77.82 31.2357 77.82H27.1757V61.72H31.2357C44.489 61.72 51.1157 57.2866 51.1157 48.42C51.1157 44.4066 49.9024 41.28 47.4757 39.04C45.1424 36.8 41.7357 35.68 37.2557 35.68C32.869 35.68 29.4624 36.8933 27.0357 39.32C24.7024 41.6533 23.349 44.64 22.9757 48.28H3.7957Z" fill="white"/>
<path d="M52.2037 91.3095C52.3204 89.7761 52.9121 88.5761 53.9787 87.7095C55.0454 86.8428 56.4287 86.4095 58.1287 86.4095C59.2621 86.4095 60.2371 86.6178 61.0537 87.0345C61.8871 87.4345 62.5121 87.9845 62.9287 88.6845C63.3621 89.3845 63.5787 90.1761 63.5787 91.0595C63.5787 92.0928 63.2787 92.9845 62.6787 93.7345C62.0954 94.4845 61.3287 94.9678 60.3787 95.1845V95.3095C61.4621 95.5761 62.3204 96.1011 62.9537 96.8845C63.5871 97.6678 63.9037 98.6928 63.9037 99.9595C63.9037 100.909 63.6871 101.768 63.2537 102.534C62.8204 103.284 62.1704 103.876 61.3037 104.309C60.4371 104.743 59.3954 104.959 58.1787 104.959C56.4121 104.959 54.9621 104.501 53.8287 103.584C52.6954 102.651 52.0621 101.334 51.9287 99.6345H54.1287C54.2454 100.634 54.6537 101.451 55.3537 102.084C56.0537 102.718 56.9871 103.034 58.1537 103.034C59.3204 103.034 60.2037 102.734 60.8037 102.134C61.4204 101.518 61.7287 100.726 61.7287 99.7595C61.7287 98.5095 61.3121 97.6095 60.4787 97.0595C59.6454 96.5095 58.3871 96.2345 56.7037 96.2345H56.1287V94.3345H56.7287C58.2621 94.3178 59.4204 94.0678 60.2037 93.5845C60.9871 93.0845 61.3787 92.3178 61.3787 91.2845C61.3787 90.4011 61.0871 89.6928 60.5037 89.1595C59.9371 88.6261 59.1204 88.3595 58.0537 88.3595C57.0204 88.3595 56.1871 88.6261 55.5537 89.1595C54.9204 89.6928 54.5454 90.4095 54.4287 91.3095H52.2037ZM67.5554 104.984C67.1221 104.984 66.7554 104.834 66.4554 104.534C66.1554 104.234 66.0054 103.868 66.0054 103.434C66.0054 103.001 66.1554 102.634 66.4554 102.334C66.7554 102.034 67.1221 101.884 67.5554 101.884C67.9721 101.884 68.3221 102.034 68.6054 102.334C68.9054 102.634 69.0554 103.001 69.0554 103.434C69.0554 103.868 68.9054 104.234 68.6054 104.534C68.3221 104.834 67.9721 104.984 67.5554 104.984ZM82.7094 88.7345H73.9344V94.4345C74.3178 93.9011 74.8844 93.4678 75.6344 93.1345C76.3844 92.7845 77.1928 92.6095 78.0594 92.6095C79.4428 92.6095 80.5678 92.9011 81.4344 93.4845C82.3011 94.0511 82.9178 94.7928 83.2844 95.7095C83.6678 96.6095 83.8594 97.5678 83.8594 98.5845C83.8594 99.7845 83.6344 100.859 83.1844 101.809C82.7344 102.759 82.0428 103.509 81.1094 104.059C80.1928 104.609 79.0511 104.884 77.6844 104.884C75.9344 104.884 74.5178 104.434 73.4344 103.534C72.3511 102.634 71.6928 101.434 71.4594 99.9345H73.6844C73.9011 100.884 74.3594 101.626 75.0594 102.159C75.7594 102.693 76.6428 102.959 77.7094 102.959C79.0261 102.959 80.0178 102.568 80.6844 101.784C81.3511 100.984 81.6844 99.9345 81.6844 98.6345C81.6844 97.3345 81.3511 96.3345 80.6844 95.6345C80.0178 94.9178 79.0344 94.5595 77.7344 94.5595C76.8511 94.5595 76.0761 94.7761 75.4094 95.2095C74.7594 95.6261 74.2844 96.2011 73.9844 96.9345H71.8344V86.7345H82.7094V88.7345ZM86.3627 95.6095C86.3627 92.7428 86.8293 90.5095 87.7627 88.9095C88.696 87.2928 90.3293 86.4845 92.6627 86.4845C94.9793 86.4845 96.6043 87.2928 97.5377 88.9095C98.471 90.5095 98.9377 92.7428 98.9377 95.6095C98.9377 98.5261 98.471 100.793 97.5377 102.409C96.6043 104.026 94.9793 104.834 92.6627 104.834C90.3293 104.834 88.696 104.026 87.7627 102.409C86.8293 100.793 86.3627 98.5261 86.3627 95.6095ZM96.6877 95.6095C96.6877 94.1595 96.5877 92.9345 96.3877 91.9345C96.2043 90.9178 95.8127 90.1011 95.2127 89.4845C94.6293 88.8678 93.7793 88.5595 92.6627 88.5595C91.5293 88.5595 90.6627 88.8678 90.0627 89.4845C89.4793 90.1011 89.0877 90.9178 88.8877 91.9345C88.7043 92.9345 88.6127 94.1595 88.6127 95.6095C88.6127 97.1095 88.7043 98.3678 88.8877 99.3845C89.0877 100.401 89.4793 101.218 90.0627 101.834C90.6627 102.451 91.5293 102.759 92.6627 102.759C93.7793 102.759 94.6293 102.451 95.2127 101.834C95.8127 101.218 96.2043 100.401 96.3877 99.3845C96.5877 98.3678 96.6877 97.1095 96.6877 95.6095ZM101.541 95.6095C101.541 92.7428 102.008 90.5095 102.941 88.9095C103.874 87.2928 105.508 86.4845 107.841 86.4845C110.158 86.4845 111.783 87.2928 112.716 88.9095C113.649 90.5095 114.116 92.7428 114.116 95.6095C114.116 98.5261 113.649 100.793 112.716 102.409C111.783 104.026 110.158 104.834 107.841 104.834C105.508 104.834 103.874 104.026 102.941 102.409C102.008 100.793 101.541 98.5261 101.541 95.6095ZM111.866 95.6095C111.866 94.1595 111.766 92.9345 111.566 91.9345C111.383 90.9178 110.991 90.1011 110.391 89.4845C109.808 88.8678 108.958 88.5595 107.841 88.5595C106.708 88.5595 105.841 88.8678 105.241 89.4845C104.658 90.1011 104.266 90.9178 104.066 91.9345C103.883 92.9345 103.791 94.1595 103.791 95.6095C103.791 97.1095 103.883 98.3678 104.066 99.3845C104.266 100.401 104.658 101.218 105.241 101.834C105.841 102.451 106.708 102.759 107.841 102.759C108.958 102.759 109.808 102.451 110.391 101.834C110.991 101.218 111.383 100.401 111.566 99.3845C111.766 98.3678 111.866 97.1095 111.866 95.6095ZM117.819 104.984C117.386 104.984 117.019 104.834 116.719 104.534C116.419 104.234 116.269 103.868 116.269 103.434C116.269 103.001 116.419 102.634 116.719 102.334C117.019 102.034 117.386 101.884 117.819 101.884C118.236 101.884 118.586 102.034 118.869 102.334C119.169 102.634 119.319 103.001 119.319 103.434C119.319 103.868 119.169 104.234 118.869 104.534C118.586 104.834 118.236 104.984 117.819 104.984ZM121.448 95.6095C121.448 92.7428 121.915 90.5095 122.848 88.9095C123.782 87.2928 125.415 86.4845 127.748 86.4845C130.065 86.4845 131.69 87.2928 132.623 88.9095C133.557 90.5095 134.023 92.7428 134.023 95.6095C134.023 98.5261 133.557 100.793 132.623 102.409C131.69 104.026 130.065 104.834 127.748 104.834C125.415 104.834 123.782 104.026 122.848 102.409C121.915 100.793 121.448 98.5261 121.448 95.6095ZM131.773 95.6095C131.773 94.1595 131.673 92.9345 131.473 91.9345C131.29 90.9178 130.898 90.1011 130.298 89.4845C129.715 88.8678 128.865 88.5595 127.748 88.5595C126.615 88.5595 125.748 88.8678 125.148 89.4845C124.565 90.1011 124.173 90.9178 123.973 91.9345C123.79 92.9345 123.698 94.1595 123.698 95.6095C123.698 97.1095 123.79 98.3678 123.973 99.3845C124.173 100.401 124.565 101.218 125.148 101.834C125.748 102.451 126.615 102.759 127.748 102.759C128.865 102.759 129.715 102.451 130.298 101.834C130.898 101.218 131.29 100.401 131.473 99.3845C131.673 98.3678 131.773 97.1095 131.773 95.6095ZM136.626 95.6095C136.626 92.7428 137.093 90.5095 138.026 88.9095C138.96 87.2928 140.593 86.4845 142.926 86.4845C145.243 86.4845 146.868 87.2928 147.801 88.9095C148.735 90.5095 149.201 92.7428 149.201 95.6095C149.201 98.5261 148.735 100.793 147.801 102.409C146.868 104.026 145.243 104.834 142.926 104.834C140.593 104.834 138.96 104.026 138.026 102.409C137.093 100.793 136.626 98.5261 136.626 95.6095ZM146.951 95.6095C146.951 94.1595 146.851 92.9345 146.651 91.9345C146.468 90.9178 146.076 90.1011 145.476 89.4845C144.893 88.8678 144.043 88.5595 142.926 88.5595C141.793 88.5595 140.926 88.8678 140.326 89.4845C139.743 90.1011 139.351 90.9178 139.151 91.9345C138.968 92.9345 138.876 94.1595 138.876 95.6095C138.876 97.1095 138.968 98.3678 139.151 99.3845C139.351 100.401 139.743 101.218 140.326 101.834C140.926 102.451 141.793 102.759 142.926 102.759C144.043 102.759 144.893 102.451 145.476 101.834C146.076 101.218 146.468 100.401 146.651 99.3845C146.851 98.3678 146.951 97.1095 146.951 95.6095ZM151.805 95.6095C151.805 92.7428 152.271 90.5095 153.205 88.9095C154.138 87.2928 155.771 86.4845 158.105 86.4845C160.421 86.4845 162.046 87.2928 162.98 88.9095C163.913 90.5095 164.38 92.7428 164.38 95.6095C164.38 98.5261 163.913 100.793 162.98 102.409C162.046 104.026 160.421 104.834 158.105 104.834C155.771 104.834 154.138 104.026 153.205 102.409C152.271 100.793 151.805 98.5261 151.805 95.6095ZM162.13 95.6095C162.13 94.1595 162.03 92.9345 161.83 91.9345C161.646 90.9178 161.255 90.1011 160.655 89.4845C160.071 88.8678 159.221 88.5595 158.105 88.5595C156.971 88.5595 156.105 88.8678 155.505 89.4845C154.921 90.1011 154.53 90.9178 154.33 91.9345C154.146 92.9345 154.055 94.1595 154.055 95.6095C154.055 97.1095 154.146 98.3678 154.33 99.3845C154.53 100.401 154.921 101.218 155.505 101.834C156.105 102.451 156.971 102.759 158.105 102.759C159.221 102.759 160.071 102.451 160.655 101.834C161.255 101.218 161.646 100.401 161.83 99.3845C162.03 98.3678 162.13 97.1095 162.13 95.6095ZM178.353 105.059C177.303 105.059 176.361 104.884 175.528 104.534C174.695 104.168 174.036 103.668 173.553 103.034C173.07 102.384 172.803 101.643 172.753 100.809H175.103C175.17 101.493 175.486 102.051 176.053 102.484C176.636 102.918 177.395 103.134 178.328 103.134C179.195 103.134 179.878 102.943 180.378 102.559C180.878 102.176 181.128 101.693 181.128 101.109C181.128 100.509 180.861 100.068 180.328 99.7845C179.795 99.4845 178.97 99.1928 177.853 98.9095C176.836 98.6428 176.003 98.3761 175.353 98.1095C174.72 97.8261 174.17 97.4178 173.703 96.8845C173.253 96.3345 173.028 95.6178 173.028 94.7345C173.028 94.0345 173.236 93.3928 173.653 92.8095C174.07 92.2261 174.661 91.7678 175.428 91.4345C176.195 91.0845 177.07 90.9095 178.053 90.9095C179.57 90.9095 180.795 91.2928 181.728 92.0595C182.661 92.8261 183.161 93.8761 183.228 95.2095H180.953C180.903 94.4928 180.611 93.9178 180.078 93.4845C179.561 93.0511 178.861 92.8345 177.978 92.8345C177.161 92.8345 176.511 93.0095 176.028 93.3595C175.545 93.7095 175.303 94.1678 175.303 94.7345C175.303 95.1845 175.445 95.5595 175.728 95.8595C176.028 96.1428 176.395 96.3761 176.828 96.5595C177.278 96.7261 177.895 96.9178 178.678 97.1345C179.661 97.4011 180.461 97.6678 181.078 97.9345C181.695 98.1845 182.22 98.5678 182.653 99.0845C183.103 99.6011 183.336 100.276 183.353 101.109C183.353 101.859 183.145 102.534 182.728 103.134C182.311 103.734 181.72 104.209 180.953 104.559C180.203 104.893 179.336 105.059 178.353 105.059ZM192.019 105.059C190.736 105.059 189.569 104.768 188.519 104.184C187.486 103.601 186.669 102.776 186.069 101.709C185.486 100.626 185.194 99.3761 185.194 97.9595C185.194 96.5595 185.494 95.3261 186.094 94.2595C186.711 93.1761 187.544 92.3511 188.594 91.7845C189.644 91.2011 190.819 90.9095 192.119 90.9095C193.419 90.9095 194.594 91.2011 195.644 91.7845C196.694 92.3511 197.519 93.1678 198.119 94.2345C198.736 95.3011 199.044 96.5428 199.044 97.9595C199.044 99.3761 198.728 100.626 198.094 101.709C197.478 102.776 196.636 103.601 195.569 104.184C194.503 104.768 193.319 105.059 192.019 105.059ZM192.019 103.059C192.836 103.059 193.603 102.868 194.319 102.484C195.036 102.101 195.611 101.526 196.044 100.759C196.494 99.9928 196.719 99.0595 196.719 97.9595C196.719 96.8595 196.503 95.9261 196.069 95.1595C195.636 94.3928 195.069 93.8261 194.369 93.4595C193.669 93.0761 192.911 92.8845 192.094 92.8845C191.261 92.8845 190.494 93.0761 189.794 93.4595C189.111 93.8261 188.561 94.3928 188.144 95.1595C187.728 95.9261 187.519 96.8595 187.519 97.9595C187.519 99.0761 187.719 100.018 188.119 100.784C188.536 101.551 189.086 102.126 189.769 102.509C190.453 102.876 191.203 103.059 192.019 103.059ZM201.866 87.4095H204.391L201.991 93.0845H200.391L201.866 87.4095ZM222.939 90.8845C224.006 90.8845 224.956 91.1095 225.789 91.5595C226.623 91.9928 227.281 92.6511 227.764 93.5345C228.248 94.4178 228.489 95.4928 228.489 96.7595V104.834H226.239V97.0845C226.239 95.7178 225.898 94.6761 225.214 93.9595C224.548 93.2261 223.639 92.8595 222.489 92.8595C221.306 92.8595 220.364 93.2428 219.664 94.0095C218.964 94.7595 218.614 95.8511 218.614 97.2845V104.834H216.364V97.0845C216.364 95.7178 216.023 94.6761 215.339 93.9595C214.673 93.2261 213.764 92.8595 212.614 92.8595C211.431 92.8595 210.489 93.2428 209.789 94.0095C209.089 94.7595 208.739 95.8511 208.739 97.2845V104.834H206.464V91.1345H208.739V93.1095C209.189 92.3928 209.789 91.8428 210.539 91.4595C211.306 91.0761 212.148 90.8845 213.064 90.8845C214.214 90.8845 215.231 91.1428 216.114 91.6595C216.998 92.1761 217.656 92.9345 218.089 93.9345C218.473 92.9678 219.106 92.2178 219.989 91.6845C220.873 91.1511 221.856 90.8845 222.939 90.8845Z" fill="#CCCCCC"/>
</svg>
