<svg width="282" height="139" viewBox="0 0 282 139" fill="none" xmlns="http://www.w3.org/2000/svg">
<rect x="0.5" y="0.5" width="281" height="138" rx="29.5" fill="#1B1B1B" stroke="#262626"/>
<path d="M48.8652 40.3119C48.6519 39.4159 48.2786 38.7439 47.7452 38.2959C47.2332 37.8479 46.4866 37.6239 45.5052 37.6239C44.0332 37.6239 42.9452 38.2212 42.2412 39.4159C41.5586 40.5892 41.2066 42.5093 41.1852 45.1759C41.6972 44.3226 42.4439 43.6613 43.4252 43.1919C44.4066 42.7013 45.4732 42.4559 46.6252 42.4559C48.0119 42.4559 49.2386 42.7546 50.3052 43.3519C51.3719 43.9493 52.2039 44.8239 52.8012 45.9759C53.3986 47.1066 53.6972 48.4719 53.6972 50.0719C53.6972 51.5866 53.3879 52.9413 52.7692 54.1359C52.1719 55.3093 51.2866 56.2266 50.1132 56.8879C48.9399 57.5493 47.5426 57.8799 45.9212 57.8799C43.7026 57.8799 41.9532 57.3893 40.6732 56.4079C39.4146 55.4266 38.5292 54.0613 38.0172 52.3119C37.5266 50.5413 37.2812 48.3653 37.2812 45.7839C37.2812 41.8799 37.9532 38.9359 39.2972 36.9519C40.6412 34.9466 42.7639 33.9439 45.6652 33.9439C47.9052 33.9439 49.6439 34.5519 50.8812 35.7679C52.1186 36.9839 52.8332 38.4986 53.0252 40.3119H48.8652ZM45.6012 46.1359C44.4706 46.1359 43.5212 46.4666 42.7532 47.1279C41.9852 47.7893 41.6012 48.7493 41.6012 50.0079C41.6012 51.2666 41.9532 52.2586 42.6572 52.9839C43.3826 53.7093 44.3959 54.0719 45.6972 54.0719C46.8492 54.0719 47.7559 53.7199 48.4172 53.0159C49.0999 52.3119 49.4412 51.3626 49.4412 50.1679C49.4412 48.9306 49.1106 47.9493 48.4492 47.2239C47.8092 46.4986 46.8599 46.1359 45.6012 46.1359ZM72.207 58.1039C70.5003 58.1039 68.9643 57.7306 67.599 56.9839C66.2337 56.2159 65.1563 55.1386 64.367 53.7519C63.599 52.3653 63.215 50.7653 63.215 48.9519C63.215 47.1386 63.6097 45.5386 64.399 44.1519C65.2097 42.7653 66.3083 41.6986 67.695 40.9519C69.0817 40.1839 70.6283 39.7999 72.335 39.7999C74.0417 39.7999 75.5883 40.1839 76.975 40.9519C78.3617 41.6986 79.4497 42.7653 80.239 44.1519C81.0497 45.5386 81.455 47.1386 81.455 48.9519C81.455 50.7653 81.039 52.3653 80.207 53.7519C79.3963 55.1386 78.287 56.2159 76.879 56.9839C75.4923 57.7306 73.935 58.1039 72.207 58.1039ZM72.207 54.1999C73.0177 54.1999 73.775 54.0079 74.479 53.6239C75.2043 53.2186 75.7803 52.6213 76.207 51.8319C76.6337 51.0426 76.847 50.0826 76.847 48.9519C76.847 47.2666 76.399 45.9759 75.503 45.0799C74.6283 44.1626 73.551 43.7039 72.271 43.7039C70.991 43.7039 69.9137 44.1626 69.039 45.0799C68.1857 45.9759 67.759 47.2666 67.759 48.9519C67.759 50.6373 68.175 51.9386 69.007 52.8559C69.8603 53.7519 70.927 54.1999 72.207 54.1999ZM101.181 40.0879L90.2052 66.1999H85.4372L89.2772 57.3679L82.1732 40.0879H87.1972L91.7732 52.4719L96.4132 40.0879H101.181ZM107.556 34.1359V57.8159H103.076V34.1359H107.556ZM113.734 37.9759C112.945 37.9759 112.284 37.7306 111.75 37.2399C111.238 36.7279 110.982 36.0986 110.982 35.3519C110.982 34.6053 111.238 33.9866 111.75 33.4959C112.284 32.9839 112.945 32.7279 113.734 32.7279C114.524 32.7279 115.174 32.9839 115.686 33.4959C116.22 33.9866 116.486 34.6053 116.486 35.3519C116.486 36.0986 116.22 36.7279 115.686 37.2399C115.174 37.7306 114.524 37.9759 113.734 37.9759ZM115.942 40.0879V57.8159H111.462V40.0879H115.942ZM130.345 57.8159L124.329 50.2639V57.8159H119.849V34.1359H124.329V47.6079L130.281 40.0879H136.105L128.297 48.9839L136.169 57.8159H130.345ZM152.993 58.1039C151.287 58.1039 149.751 57.7306 148.385 56.9839C147.02 56.2159 145.943 55.1386 145.153 53.7519C144.385 52.3653 144.001 50.7653 144.001 48.9519C144.001 47.1386 144.396 45.5386 145.185 44.1519C145.996 42.7653 147.095 41.6986 148.481 40.9519C149.868 40.1839 151.415 39.7999 153.121 39.7999C154.828 39.7999 156.375 40.1839 157.761 40.9519C159.148 41.6986 160.236 42.7653 161.025 44.1519C161.836 45.5386 162.241 47.1386 162.241 48.9519C162.241 50.7653 161.825 52.3653 160.993 53.7519C160.183 55.1386 159.073 56.2159 157.665 56.9839C156.279 57.7306 154.721 58.1039 152.993 58.1039ZM152.993 54.1999C153.804 54.1999 154.561 54.0079 155.265 53.6239C155.991 53.2186 156.567 52.6213 156.993 51.8319C157.42 51.0426 157.633 50.0826 157.633 48.9519C157.633 47.2666 157.185 45.9759 156.289 45.0799C155.415 44.1626 154.337 43.7039 153.057 43.7039C151.777 43.7039 150.7 44.1626 149.825 45.0799C148.972 45.9759 148.545 47.2666 148.545 48.9519C148.545 50.6373 148.961 51.9386 149.793 52.8559C150.647 53.7519 151.713 54.1999 152.993 54.1999ZM169.487 42.6799C170.063 41.8266 170.853 41.1333 171.855 40.5999C172.879 40.0666 174.042 39.7999 175.343 39.7999C176.858 39.7999 178.223 40.1733 179.439 40.9199C180.677 41.6666 181.647 42.7333 182.351 44.1199C183.077 45.4853 183.439 47.0746 183.439 48.8879C183.439 50.7013 183.077 52.3119 182.351 53.7199C181.647 55.1066 180.677 56.1839 179.439 56.9519C178.223 57.7199 176.858 58.1039 175.343 58.1039C174.021 58.1039 172.858 57.8479 171.855 57.3359C170.874 56.8026 170.085 56.1199 169.487 55.2879V57.8159H165.007V34.1359H169.487V42.6799ZM178.863 48.8879C178.863 47.8213 178.639 46.9039 178.191 46.1359C177.765 45.3466 177.189 44.7493 176.463 44.3439C175.759 43.9386 174.991 43.7359 174.159 43.7359C173.349 43.7359 172.581 43.9493 171.855 44.3759C171.151 44.7813 170.575 45.3786 170.127 46.1679C169.701 46.9573 169.487 47.8853 169.487 48.9519C169.487 50.0186 169.701 50.9466 170.127 51.7359C170.575 52.5253 171.151 53.1333 171.855 53.5599C172.581 53.9653 173.349 54.1679 174.159 54.1679C174.991 54.1679 175.759 53.9546 176.463 53.5279C177.189 53.1013 177.765 52.4933 178.191 51.7039C178.639 50.9146 178.863 49.9759 178.863 48.8879ZM202.911 40.0879V57.8159H198.399V55.5759C197.823 56.3439 197.066 56.9519 196.127 57.3999C195.21 57.8266 194.207 58.0399 193.119 58.0399C191.732 58.0399 190.506 57.7519 189.439 57.1759C188.372 56.5786 187.53 55.7146 186.911 54.5839C186.314 53.4319 186.015 52.0666 186.015 50.4879V40.0879H190.495V49.8479C190.495 51.2559 190.847 52.3439 191.551 53.1119C192.255 53.8586 193.215 54.2319 194.431 54.2319C195.668 54.2319 196.639 53.8586 197.343 53.1119C198.047 52.3439 198.399 51.2559 198.399 49.8479V40.0879H202.911ZM216.635 39.8319C218.747 39.8319 220.454 40.5039 221.755 41.8479C223.057 43.1706 223.707 45.0266 223.707 47.4159V57.8159H219.227V48.0239C219.227 46.6159 218.875 45.5386 218.171 44.7919C217.467 44.0239 216.507 43.6399 215.291 43.6399C214.054 43.6399 213.073 44.0239 212.347 44.7919C211.643 45.5386 211.291 46.6159 211.291 48.0239V57.8159H206.811V40.0879H211.291V42.2959C211.889 41.5279 212.646 40.9306 213.563 40.5039C214.502 40.0559 215.526 39.8319 216.635 39.8319ZM226.295 48.8879C226.295 47.0959 226.647 45.5066 227.351 44.1199C228.077 42.7333 229.047 41.6666 230.263 40.9199C231.501 40.1733 232.877 39.7999 234.391 39.7999C235.714 39.7999 236.866 40.0666 237.847 40.5999C238.85 41.1333 239.65 41.8053 240.247 42.6159V40.0879H244.759V57.8159H240.247V55.2239C239.671 56.0559 238.871 56.7493 237.847 57.3039C236.845 57.8373 235.682 58.1039 234.359 58.1039C232.866 58.1039 231.501 57.7199 230.263 56.9519C229.047 56.1839 228.077 55.1066 227.351 53.7199C226.647 52.3119 226.295 50.7013 226.295 48.8879ZM240.247 48.9519C240.247 47.8639 240.034 46.9359 239.607 46.1679C239.181 45.3786 238.605 44.7813 237.879 44.3759C237.154 43.9493 236.375 43.7359 235.543 43.7359C234.711 43.7359 233.943 43.9386 233.239 44.3439C232.535 44.7493 231.959 45.3466 231.511 46.1359C231.085 46.9039 230.871 47.8213 230.871 48.8879C230.871 49.9546 231.085 50.8933 231.511 51.7039C231.959 52.4933 232.535 53.1013 233.239 53.5279C233.965 53.9546 234.733 54.1679 235.543 54.1679C236.375 54.1679 237.154 53.9653 237.879 53.5599C238.605 53.1333 239.181 52.5359 239.607 51.7679C240.034 50.9786 240.247 50.0399 240.247 48.9519Z" fill="#CCCCCC"/>
<path d="M62.255 91.0595C61.8883 89.2095 60.7466 88.2845 58.83 88.2845C57.3466 88.2845 56.2383 88.8595 55.505 90.0095C54.7716 91.1428 54.4133 93.0178 54.43 95.6345C54.8133 94.7678 55.4466 94.0928 56.33 93.6095C57.23 93.1095 58.23 92.8595 59.33 92.8595C61.0466 92.8595 62.4133 93.3928 63.43 94.4595C64.4633 95.5261 64.98 97.0011 64.98 98.8845C64.98 100.018 64.755 101.034 64.305 101.934C63.8716 102.834 63.205 103.551 62.305 104.084C61.4216 104.618 60.3466 104.884 59.08 104.884C57.3633 104.884 56.0216 104.501 55.055 103.734C54.0883 102.968 53.4133 101.909 53.03 100.559C52.6466 99.2095 52.455 97.5428 52.455 95.5595C52.455 89.4428 54.5883 86.3845 58.855 86.3845C60.4883 86.3845 61.7716 86.8261 62.705 87.7095C63.6383 88.5928 64.1883 89.7095 64.355 91.0595H62.255ZM58.855 94.7845C58.1383 94.7845 57.4633 94.9345 56.83 95.2345C56.1966 95.5178 55.68 95.9595 55.28 96.5595C54.8966 97.1428 54.705 97.8595 54.705 98.7095C54.705 99.9761 55.0716 101.009 55.805 101.809C56.5383 102.593 57.5883 102.984 58.955 102.984C60.1216 102.984 61.0466 102.626 61.73 101.909C62.43 101.176 62.78 100.193 62.78 98.9595C62.78 97.6595 62.4466 96.6428 61.78 95.9095C61.1133 95.1595 60.1383 94.7845 58.855 94.7845ZM68.6291 104.984C68.1958 104.984 67.8291 104.834 67.5291 104.534C67.2291 104.234 67.0791 103.868 67.0791 103.434C67.0791 103.001 67.2291 102.634 67.5291 102.334C67.8291 102.034 68.1958 101.884 68.6291 101.884C69.0458 101.884 69.3958 102.034 69.6791 102.334C69.9791 102.634 70.1291 103.001 70.1291 103.434C70.1291 103.868 69.9791 104.234 69.6791 104.534C69.3958 104.834 69.0458 104.984 68.6291 104.984ZM72.2581 95.6095C72.2581 92.7428 72.7248 90.5095 73.6581 88.9095C74.5915 87.2928 76.2248 86.4845 78.5581 86.4845C80.8748 86.4845 82.4998 87.2928 83.4331 88.9095C84.3665 90.5095 84.8331 92.7428 84.8331 95.6095C84.8331 98.5261 84.3665 100.793 83.4331 102.409C82.4998 104.026 80.8748 104.834 78.5581 104.834C76.2248 104.834 74.5915 104.026 73.6581 102.409C72.7248 100.793 72.2581 98.5261 72.2581 95.6095ZM82.5831 95.6095C82.5831 94.1595 82.4831 92.9345 82.2831 91.9345C82.0998 90.9178 81.7081 90.1011 81.1081 89.4845C80.5248 88.8678 79.6748 88.5595 78.5581 88.5595C77.4248 88.5595 76.5581 88.8678 75.9581 89.4845C75.3748 90.1011 74.9831 90.9178 74.7831 91.9345C74.5998 92.9345 74.5081 94.1595 74.5081 95.6095C74.5081 97.1095 74.5998 98.3678 74.7831 99.3845C74.9831 100.401 75.3748 101.218 75.9581 101.834C76.5581 102.451 77.4248 102.759 78.5581 102.759C79.6748 102.759 80.5248 102.451 81.1081 101.834C81.7081 101.218 82.0998 100.401 82.2831 99.3845C82.4831 98.3678 82.5831 97.1095 82.5831 95.6095ZM87.4364 95.6095C87.4364 92.7428 87.903 90.5095 88.8364 88.9095C89.7697 87.2928 91.403 86.4845 93.7364 86.4845C96.053 86.4845 97.678 87.2928 98.6114 88.9095C99.5447 90.5095 100.011 92.7428 100.011 95.6095C100.011 98.5261 99.5447 100.793 98.6114 102.409C97.678 104.026 96.053 104.834 93.7364 104.834C91.403 104.834 89.7697 104.026 88.8364 102.409C87.903 100.793 87.4364 98.5261 87.4364 95.6095ZM97.7614 95.6095C97.7614 94.1595 97.6614 92.9345 97.4614 91.9345C97.278 90.9178 96.8864 90.1011 96.2864 89.4845C95.703 88.8678 94.853 88.5595 93.7364 88.5595C92.603 88.5595 91.7364 88.8678 91.1364 89.4845C90.553 90.1011 90.1614 90.9178 89.9614 91.9345C89.778 92.9345 89.6864 94.1595 89.6864 95.6095C89.6864 97.1095 89.778 98.3678 89.9614 99.3845C90.1614 100.401 90.553 101.218 91.1364 101.834C91.7364 102.451 92.603 102.759 93.7364 102.759C94.853 102.759 95.703 102.451 96.2864 101.834C96.8864 101.218 97.278 100.401 97.4614 99.3845C97.6614 98.3678 97.7614 97.1095 97.7614 95.6095ZM102.615 95.6095C102.615 92.7428 103.081 90.5095 104.015 88.9095C104.948 87.2928 106.581 86.4845 108.915 86.4845C111.231 86.4845 112.856 87.2928 113.79 88.9095C114.723 90.5095 115.19 92.7428 115.19 95.6095C115.19 98.5261 114.723 100.793 113.79 102.409C112.856 104.026 111.231 104.834 108.915 104.834C106.581 104.834 104.948 104.026 104.015 102.409C103.081 100.793 102.615 98.5261 102.615 95.6095ZM112.94 95.6095C112.94 94.1595 112.84 92.9345 112.64 91.9345C112.456 90.9178 112.065 90.1011 111.465 89.4845C110.881 88.8678 110.031 88.5595 108.915 88.5595C107.781 88.5595 106.915 88.8678 106.315 89.4845C105.731 90.1011 105.34 90.9178 105.14 91.9345C104.956 92.9345 104.865 94.1595 104.865 95.6095C104.865 97.1095 104.956 98.3678 105.14 99.3845C105.34 100.401 105.731 101.218 106.315 101.834C106.915 102.451 107.781 102.759 108.915 102.759C110.031 102.759 110.881 102.451 111.465 101.834C112.065 101.218 112.456 100.401 112.64 99.3845C112.84 98.3678 112.94 97.1095 112.94 95.6095ZM118.893 104.984C118.46 104.984 118.093 104.834 117.793 104.534C117.493 104.234 117.343 103.868 117.343 103.434C117.343 103.001 117.493 102.634 117.793 102.334C118.093 102.034 118.46 101.884 118.893 101.884C119.31 101.884 119.66 102.034 119.943 102.334C120.243 102.634 120.393 103.001 120.393 103.434C120.393 103.868 120.243 104.234 119.943 104.534C119.66 104.834 119.31 104.984 118.893 104.984ZM122.522 95.6095C122.522 92.7428 122.989 90.5095 123.922 88.9095C124.855 87.2928 126.489 86.4845 128.822 86.4845C131.139 86.4845 132.764 87.2928 133.697 88.9095C134.63 90.5095 135.097 92.7428 135.097 95.6095C135.097 98.5261 134.63 100.793 133.697 102.409C132.764 104.026 131.139 104.834 128.822 104.834C126.489 104.834 124.855 104.026 123.922 102.409C122.989 100.793 122.522 98.5261 122.522 95.6095ZM132.847 95.6095C132.847 94.1595 132.747 92.9345 132.547 91.9345C132.364 90.9178 131.972 90.1011 131.372 89.4845C130.789 88.8678 129.939 88.5595 128.822 88.5595C127.689 88.5595 126.822 88.8678 126.222 89.4845C125.639 90.1011 125.247 90.9178 125.047 91.9345C124.864 92.9345 124.772 94.1595 124.772 95.6095C124.772 97.1095 124.864 98.3678 125.047 99.3845C125.247 100.401 125.639 101.218 126.222 101.834C126.822 102.451 127.689 102.759 128.822 102.759C129.939 102.759 130.789 102.451 131.372 101.834C131.972 101.218 132.364 100.401 132.547 99.3845C132.747 98.3678 132.847 97.1095 132.847 95.6095ZM137.7 95.6095C137.7 92.7428 138.167 90.5095 139.1 88.9095C140.033 87.2928 141.667 86.4845 144 86.4845C146.317 86.4845 147.942 87.2928 148.875 88.9095C149.808 90.5095 150.275 92.7428 150.275 95.6095C150.275 98.5261 149.808 100.793 148.875 102.409C147.942 104.026 146.317 104.834 144 104.834C141.667 104.834 140.033 104.026 139.1 102.409C138.167 100.793 137.7 98.5261 137.7 95.6095ZM148.025 95.6095C148.025 94.1595 147.925 92.9345 147.725 91.9345C147.542 90.9178 147.15 90.1011 146.55 89.4845C145.967 88.8678 145.117 88.5595 144 88.5595C142.867 88.5595 142 88.8678 141.4 89.4845C140.817 90.1011 140.425 90.9178 140.225 91.9345C140.042 92.9345 139.95 94.1595 139.95 95.6095C139.95 97.1095 140.042 98.3678 140.225 99.3845C140.425 100.401 140.817 101.218 141.4 101.834C142 102.451 142.867 102.759 144 102.759C145.117 102.759 145.967 102.451 146.55 101.834C147.15 101.218 147.542 100.401 147.725 99.3845C147.925 98.3678 148.025 97.1095 148.025 95.6095ZM152.878 95.6095C152.878 92.7428 153.345 90.5095 154.278 88.9095C155.212 87.2928 156.845 86.4845 159.178 86.4845C161.495 86.4845 163.12 87.2928 164.053 88.9095C164.987 90.5095 165.453 92.7428 165.453 95.6095C165.453 98.5261 164.987 100.793 164.053 102.409C163.12 104.026 161.495 104.834 159.178 104.834C156.845 104.834 155.212 104.026 154.278 102.409C153.345 100.793 152.878 98.5261 152.878 95.6095ZM163.203 95.6095C163.203 94.1595 163.103 92.9345 162.903 91.9345C162.72 90.9178 162.328 90.1011 161.728 89.4845C161.145 88.8678 160.295 88.5595 159.178 88.5595C158.045 88.5595 157.178 88.8678 156.578 89.4845C155.995 90.1011 155.603 90.9178 155.403 91.9345C155.22 92.9345 155.128 94.1595 155.128 95.6095C155.128 97.1095 155.22 98.3678 155.403 99.3845C155.603 100.401 155.995 101.218 156.578 101.834C157.178 102.451 158.045 102.759 159.178 102.759C160.295 102.759 161.145 102.451 161.728 101.834C162.328 101.218 162.72 100.401 162.903 99.3845C163.103 98.3678 163.203 97.1095 163.203 95.6095ZM179.427 105.059C178.377 105.059 177.435 104.884 176.602 104.534C175.768 104.168 175.11 103.668 174.627 103.034C174.143 102.384 173.877 101.643 173.827 100.809H176.177C176.243 101.493 176.56 102.051 177.127 102.484C177.71 102.918 178.468 103.134 179.402 103.134C180.268 103.134 180.952 102.943 181.452 102.559C181.952 102.176 182.202 101.693 182.202 101.109C182.202 100.509 181.935 100.068 181.402 99.7845C180.868 99.4845 180.043 99.1928 178.927 98.9095C177.91 98.6428 177.077 98.3761 176.427 98.1095C175.793 97.8261 175.243 97.4178 174.777 96.8845C174.327 96.3345 174.102 95.6178 174.102 94.7345C174.102 94.0345 174.31 93.3928 174.727 92.8095C175.143 92.2261 175.735 91.7678 176.502 91.4345C177.268 91.0845 178.143 90.9095 179.127 90.9095C180.643 90.9095 181.868 91.2928 182.802 92.0595C183.735 92.8261 184.235 93.8761 184.302 95.2095H182.027C181.977 94.4928 181.685 93.9178 181.152 93.4845C180.635 93.0511 179.935 92.8345 179.052 92.8345C178.235 92.8345 177.585 93.0095 177.102 93.3595C176.618 93.7095 176.377 94.1678 176.377 94.7345C176.377 95.1845 176.518 95.5595 176.802 95.8595C177.102 96.1428 177.468 96.3761 177.902 96.5595C178.352 96.7261 178.968 96.9178 179.752 97.1345C180.735 97.4011 181.535 97.6678 182.152 97.9345C182.768 98.1845 183.293 98.5678 183.727 99.0845C184.177 99.6011 184.41 100.276 184.427 101.109C184.427 101.859 184.218 102.534 183.802 103.134C183.385 103.734 182.793 104.209 182.027 104.559C181.277 104.893 180.41 105.059 179.427 105.059ZM193.093 105.059C191.81 105.059 190.643 104.768 189.593 104.184C188.56 103.601 187.743 102.776 187.143 101.709C186.56 100.626 186.268 99.3761 186.268 97.9595C186.268 96.5595 186.568 95.3261 187.168 94.2595C187.785 93.1761 188.618 92.3511 189.668 91.7845C190.718 91.2011 191.893 90.9095 193.193 90.9095C194.493 90.9095 195.668 91.2011 196.718 91.7845C197.768 92.3511 198.593 93.1678 199.193 94.2345C199.81 95.3011 200.118 96.5428 200.118 97.9595C200.118 99.3761 199.801 100.626 199.168 101.709C198.551 102.776 197.71 103.601 196.643 104.184C195.576 104.768 194.393 105.059 193.093 105.059ZM193.093 103.059C193.91 103.059 194.676 102.868 195.393 102.484C196.11 102.101 196.685 101.526 197.118 100.759C197.568 99.9928 197.793 99.0595 197.793 97.9595C197.793 96.8595 197.576 95.9261 197.143 95.1595C196.71 94.3928 196.143 93.8261 195.443 93.4595C194.743 93.0761 193.985 92.8845 193.168 92.8845C192.335 92.8845 191.568 93.0761 190.868 93.4595C190.185 93.8261 189.635 94.3928 189.218 95.1595C188.801 95.9261 188.593 96.8595 188.593 97.9595C188.593 99.0761 188.793 100.018 189.193 100.784C189.61 101.551 190.16 102.126 190.843 102.509C191.526 102.876 192.276 103.059 193.093 103.059ZM202.939 87.4095H205.464L203.064 93.0845H201.464L202.939 87.4095ZM224.013 90.8845C225.08 90.8845 226.03 91.1095 226.863 91.5595C227.696 91.9928 228.355 92.6511 228.838 93.5345C229.321 94.4178 229.563 95.4928 229.563 96.7595V104.834H227.313V97.0845C227.313 95.7178 226.971 94.6761 226.288 93.9595C225.621 93.2261 224.713 92.8595 223.563 92.8595C222.38 92.8595 221.438 93.2428 220.738 94.0095C220.038 94.7595 219.688 95.8511 219.688 97.2845V104.834H217.438V97.0845C217.438 95.7178 217.096 94.6761 216.413 93.9595C215.746 93.2261 214.838 92.8595 213.688 92.8595C212.505 92.8595 211.563 93.2428 210.863 94.0095C210.163 94.7595 209.813 95.8511 209.813 97.2845V104.834H207.538V91.1345H209.813V93.1095C210.263 92.3928 210.863 91.8428 211.613 91.4595C212.38 91.0761 213.221 90.8845 214.138 90.8845C215.288 90.8845 216.305 91.1428 217.188 91.6595C218.071 92.1761 218.73 92.9345 219.163 93.9345C219.546 92.9678 220.18 92.2178 221.063 91.6845C221.946 91.1511 222.93 90.8845 224.013 90.8845Z" fill="#CCCCCC"/>
<path opacity="0.05" d="M65.136 47.3218C64.2027 43.4018 62.5694 40.4619 60.236 38.5019C57.996 36.5419 54.7294 35.5618 50.436 35.5618C43.996 35.5618 39.236 38.1752 36.156 43.4018C33.1694 48.5352 31.6294 56.9352 31.536 68.6019C33.776 64.8685 37.0427 61.9752 41.336 59.9219C45.6294 57.7752 50.296 56.7019 55.336 56.7019C61.4027 56.7019 66.7694 58.0085 71.436 60.6219C76.1027 63.2352 79.7427 67.0619 82.356 72.1019C84.9694 77.0485 86.276 83.0219 86.276 90.0219C86.276 96.6485 84.9227 102.575 82.216 107.802C79.6027 112.935 75.7294 116.949 70.596 119.842C65.4627 122.735 59.3494 124.182 52.256 124.182C42.5494 124.182 34.896 122.035 29.296 117.742C23.7894 113.449 19.916 107.475 17.676 99.8219C15.5294 92.0752 14.456 82.5552 14.456 71.2619C14.456 54.1819 17.396 41.3019 23.276 32.6219C29.156 23.8485 38.4427 19.4618 51.136 19.4618C60.936 19.4618 68.5427 22.1219 73.956 27.4419C79.3694 32.7619 82.496 39.3885 83.336 47.3218H65.136ZM50.856 72.8019C45.9094 72.8019 41.756 74.2485 38.396 77.1419C35.036 80.0352 33.356 84.2352 33.356 89.7419C33.356 95.2485 34.896 99.5885 37.976 102.762C41.1494 105.935 45.5827 107.522 51.276 107.522C56.316 107.522 60.2827 105.982 63.176 102.902C66.1627 99.8219 67.656 95.6685 67.656 90.4419C67.656 85.0285 66.2094 80.7352 63.316 77.5619C60.516 74.3885 56.3627 72.8019 50.856 72.8019Z" fill="white"/>
</svg>
