<svg width="282" height="139" viewBox="0 0 282 139" fill="none" xmlns="http://www.w3.org/2000/svg">
<rect x="0.5" y="0.5" width="281" height="138" rx="29.5" fill="#121212" stroke="#262626"/>
<path d="M31.3064 38.6159V34.4879H39.0184V57.8159H34.4104V38.6159H31.3064ZM44.3322 52.7599C46.3802 51.0533 48.0122 49.6346 49.2282 48.5039C50.4442 47.3519 51.4575 46.1573 52.2682 44.9199C53.0789 43.6826 53.4842 42.4666 53.4842 41.2719C53.4842 40.1839 53.2282 39.3306 52.7162 38.7119C52.2042 38.0933 51.4149 37.7839 50.3482 37.7839C49.2815 37.7839 48.4602 38.1466 47.8842 38.8719C47.3082 39.5759 47.0095 40.5466 46.9882 41.7839H42.6362C42.7215 39.2239 43.4789 37.2826 44.9082 35.9599C46.3589 34.6372 48.1935 33.9759 50.4122 33.9759C52.8442 33.9759 54.7109 34.6266 56.0122 35.9279C57.3135 37.2079 57.9642 38.9039 57.9642 41.0159C57.9642 42.6799 57.5162 44.2693 56.6202 45.7839C55.7242 47.2986 54.7002 48.6213 53.5482 49.7519C52.3962 50.8613 50.8922 52.2053 49.0362 53.7839H58.4762V57.4959H42.6682V54.1679L44.3322 52.7599ZM76.2682 58.1039C74.5615 58.1039 73.0255 57.7306 71.6602 56.9839C70.2949 56.2159 69.2175 55.1386 68.4282 53.7519C67.6602 52.3653 67.2762 50.7653 67.2762 48.9519C67.2762 47.1386 67.6709 45.5386 68.4602 44.1519C69.2709 42.7653 70.3695 41.6986 71.7562 40.9519C73.1429 40.1839 74.6895 39.7999 76.3962 39.7999C78.1029 39.7999 79.6495 40.1839 81.0362 40.9519C82.4229 41.6986 83.5109 42.7653 84.3002 44.1519C85.1109 45.5386 85.5162 47.1386 85.5162 48.9519C85.5162 50.7653 85.1002 52.3653 84.2682 53.7519C83.4575 55.1386 82.3482 56.2159 80.9402 56.9839C79.5535 57.7306 77.9962 58.1039 76.2682 58.1039ZM76.2682 54.1999C77.0789 54.1999 77.8362 54.0079 78.5402 53.6239C79.2655 53.2186 79.8415 52.6213 80.2682 51.8319C80.6949 51.0426 80.9082 50.0826 80.9082 48.9519C80.9082 47.2666 80.4602 45.9759 79.5642 45.0799C78.6895 44.1626 77.6122 43.7039 76.3322 43.7039C75.0522 43.7039 73.9749 44.1626 73.1002 45.0799C72.2469 45.9759 71.8202 47.2666 71.8202 48.9519C71.8202 50.6373 72.2362 51.9386 73.0682 52.8559C73.9215 53.7519 74.9882 54.1999 76.2682 54.1999ZM105.242 40.0879L94.2664 66.1999H89.4984L93.3384 57.3679L86.2344 40.0879H91.2584L95.8344 52.4719L100.474 40.0879H105.242ZM111.617 34.1359V57.8159H107.137V34.1359H111.617ZM117.796 37.9759C117.006 37.9759 116.345 37.7306 115.812 37.2399C115.3 36.7279 115.044 36.0986 115.044 35.3519C115.044 34.6053 115.3 33.9866 115.812 33.4959C116.345 32.9839 117.006 32.7279 117.796 32.7279C118.585 32.7279 119.236 32.9839 119.748 33.4959C120.281 33.9866 120.548 34.6053 120.548 35.3519C120.548 36.0986 120.281 36.7279 119.748 37.2399C119.236 37.7306 118.585 37.9759 117.796 37.9759ZM120.004 40.0879V57.8159H115.524V40.0879H120.004ZM134.406 57.8159L128.39 50.2639V57.8159H123.91V34.1359H128.39V47.6079L134.342 40.0879H140.166L132.358 48.9839L140.23 57.8159H134.406ZM157.054 58.1039C155.348 58.1039 153.812 57.7306 152.446 56.9839C151.081 56.2159 150.004 55.1386 149.214 53.7519C148.446 52.3653 148.062 50.7653 148.062 48.9519C148.062 47.1386 148.457 45.5386 149.246 44.1519C150.057 42.7653 151.156 41.6986 152.542 40.9519C153.929 40.1839 155.476 39.7999 157.182 39.7999C158.889 39.7999 160.436 40.1839 161.822 40.9519C163.209 41.6986 164.297 42.7653 165.086 44.1519C165.897 45.5386 166.302 47.1386 166.302 48.9519C166.302 50.7653 165.886 52.3653 165.054 53.7519C164.244 55.1386 163.134 56.2159 161.726 56.9839C160.34 57.7306 158.782 58.1039 157.054 58.1039ZM157.054 54.1999C157.865 54.1999 158.622 54.0079 159.326 53.6239C160.052 53.2186 160.628 52.6213 161.054 51.8319C161.481 51.0426 161.694 50.0826 161.694 48.9519C161.694 47.2666 161.246 45.9759 160.35 45.0799C159.476 44.1626 158.398 43.7039 157.118 43.7039C155.838 43.7039 154.761 44.1626 153.886 45.0799C153.033 45.9759 152.606 47.2666 152.606 48.9519C152.606 50.6373 153.022 51.9386 153.854 52.8559C154.708 53.7519 155.774 54.1999 157.054 54.1999ZM173.549 42.6799C174.125 41.8266 174.914 41.1333 175.917 40.5999C176.941 40.0666 178.103 39.7999 179.405 39.7999C180.919 39.7999 182.285 40.1733 183.501 40.9199C184.738 41.6666 185.709 42.7333 186.413 44.1199C187.138 45.4853 187.501 47.0746 187.501 48.8879C187.501 50.7013 187.138 52.3119 186.413 53.7199C185.709 55.1066 184.738 56.1839 183.501 56.9519C182.285 57.7199 180.919 58.1039 179.405 58.1039C178.082 58.1039 176.919 57.8479 175.917 57.3359C174.935 56.8026 174.146 56.1199 173.549 55.2879V57.8159H169.069V34.1359H173.549V42.6799ZM182.925 48.8879C182.925 47.8213 182.701 46.9039 182.253 46.1359C181.826 45.3466 181.25 44.7493 180.525 44.3439C179.821 43.9386 179.053 43.7359 178.221 43.7359C177.41 43.7359 176.642 43.9493 175.917 44.3759C175.213 44.7813 174.637 45.3786 174.189 46.1679C173.762 46.9573 173.549 47.8853 173.549 48.9519C173.549 50.0186 173.762 50.9466 174.189 51.7359C174.637 52.5253 175.213 53.1333 175.917 53.5599C176.642 53.9653 177.41 54.1679 178.221 54.1679C179.053 54.1679 179.821 53.9546 180.525 53.5279C181.25 53.1013 181.826 52.4933 182.253 51.7039C182.701 50.9146 182.925 49.9759 182.925 48.8879ZM206.972 40.0879V57.8159H202.46V55.5759C201.884 56.3439 201.127 56.9519 200.188 57.3999C199.271 57.8266 198.268 58.0399 197.18 58.0399C195.794 58.0399 194.567 57.7519 193.5 57.1759C192.434 56.5786 191.591 55.7146 190.972 54.5839C190.375 53.4319 190.076 52.0666 190.076 50.4879V40.0879H194.556V49.8479C194.556 51.2559 194.908 52.3439 195.612 53.1119C196.316 53.8586 197.276 54.2319 198.492 54.2319C199.73 54.2319 200.7 53.8586 201.404 53.1119C202.108 52.3439 202.46 51.2559 202.46 49.8479V40.0879H206.972ZM220.696 39.8319C222.808 39.8319 224.515 40.5039 225.816 41.8479C227.118 43.1706 227.768 45.0266 227.768 47.4159V57.8159H223.288V48.0239C223.288 46.6159 222.936 45.5386 222.232 44.7919C221.528 44.0239 220.568 43.6399 219.352 43.6399C218.115 43.6399 217.134 44.0239 216.408 44.7919C215.704 45.5386 215.352 46.6159 215.352 48.0239V57.8159H210.872V40.0879H215.352V42.2959C215.95 41.5279 216.707 40.9306 217.624 40.5039C218.563 40.0559 219.587 39.8319 220.696 39.8319ZM230.357 48.8879C230.357 47.0959 230.709 45.5066 231.413 44.1199C232.138 42.7333 233.109 41.6666 234.325 40.9199C235.562 40.1733 236.938 39.7999 238.453 39.7999C239.775 39.7999 240.927 40.0666 241.909 40.5999C242.911 41.1333 243.711 41.8053 244.309 42.6159V40.0879H248.821V57.8159H244.309V55.2239C243.733 56.0559 242.933 56.7493 241.909 57.3039C240.906 57.8373 239.743 58.1039 238.421 58.1039C236.927 58.1039 235.562 57.7199 234.325 56.9519C233.109 56.1839 232.138 55.1066 231.413 53.7199C230.709 52.3119 230.357 50.7013 230.357 48.8879ZM244.309 48.9519C244.309 47.8639 244.095 46.9359 243.669 46.1679C243.242 45.3786 242.666 44.7813 241.941 44.3759C241.215 43.9493 240.437 43.7359 239.605 43.7359C238.773 43.7359 238.005 43.9386 237.301 44.3439C236.597 44.7493 236.021 45.3466 235.573 46.1359C235.146 46.9039 234.933 47.8213 234.933 48.8879C234.933 49.9546 235.146 50.8933 235.573 51.7039C236.021 52.4933 236.597 53.1013 237.301 53.5279C238.026 53.9546 238.794 54.1679 239.605 54.1679C240.437 54.1679 241.215 53.9653 241.941 53.5599C242.666 53.1333 243.242 52.5359 243.669 51.7679C244.095 50.9786 244.309 50.0399 244.309 48.9519Z" fill="#CCCCCC"/>
<path d="M51.3382 88.8345V86.7595H56.0382V104.834H53.7382V88.8345H51.3382ZM58.826 88.8345V86.7595H63.526V104.834H61.226V88.8345H58.826ZM68.0138 104.984C67.5804 104.984 67.2138 104.834 66.9138 104.534C66.6138 104.234 66.4638 103.868 66.4638 103.434C66.4638 103.001 66.6138 102.634 66.9138 102.334C67.2138 102.034 67.5804 101.884 68.0138 101.884C68.4304 101.884 68.7804 102.034 69.0638 102.334C69.3638 102.634 69.5138 103.001 69.5138 103.434C69.5138 103.868 69.3638 104.234 69.0638 104.534C68.7804 104.834 68.4304 104.984 68.0138 104.984ZM71.6428 95.6095C71.6428 92.7428 72.1095 90.5095 73.0428 88.9095C73.9761 87.2928 75.6095 86.4845 77.9428 86.4845C80.2595 86.4845 81.8845 87.2928 82.8178 88.9095C83.7511 90.5095 84.2178 92.7428 84.2178 95.6095C84.2178 98.5261 83.7511 100.793 82.8178 102.409C81.8845 104.026 80.2595 104.834 77.9428 104.834C75.6095 104.834 73.9761 104.026 73.0428 102.409C72.1095 100.793 71.6428 98.5261 71.6428 95.6095ZM81.9678 95.6095C81.9678 94.1595 81.8678 92.9345 81.6678 91.9345C81.4845 90.9178 81.0928 90.1011 80.4928 89.4845C79.9095 88.8678 79.0595 88.5595 77.9428 88.5595C76.8095 88.5595 75.9428 88.8678 75.3428 89.4845C74.7595 90.1011 74.3678 90.9178 74.1678 91.9345C73.9845 92.9345 73.8928 94.1595 73.8928 95.6095C73.8928 97.1095 73.9845 98.3678 74.1678 99.3845C74.3678 100.401 74.7595 101.218 75.3428 101.834C75.9428 102.451 76.8095 102.759 77.9428 102.759C79.0595 102.759 79.9095 102.451 80.4928 101.834C81.0928 101.218 81.4845 100.401 81.6678 99.3845C81.8678 98.3678 81.9678 97.1095 81.9678 95.6095ZM86.821 95.6095C86.821 92.7428 87.2877 90.5095 88.221 88.9095C89.1544 87.2928 90.7877 86.4845 93.121 86.4845C95.4377 86.4845 97.0627 87.2928 97.996 88.9095C98.9294 90.5095 99.396 92.7428 99.396 95.6095C99.396 98.5261 98.9294 100.793 97.996 102.409C97.0627 104.026 95.4377 104.834 93.121 104.834C90.7877 104.834 89.1544 104.026 88.221 102.409C87.2877 100.793 86.821 98.5261 86.821 95.6095ZM97.146 95.6095C97.146 94.1595 97.046 92.9345 96.846 91.9345C96.6627 90.9178 96.271 90.1011 95.671 89.4845C95.0877 88.8678 94.2377 88.5595 93.121 88.5595C91.9877 88.5595 91.121 88.8678 90.521 89.4845C89.9377 90.1011 89.546 90.9178 89.346 91.9345C89.1627 92.9345 89.071 94.1595 89.071 95.6095C89.071 97.1095 89.1627 98.3678 89.346 99.3845C89.546 100.401 89.9377 101.218 90.521 101.834C91.121 102.451 91.9877 102.759 93.121 102.759C94.2377 102.759 95.0877 102.451 95.671 101.834C96.271 101.218 96.6627 100.401 96.846 99.3845C97.046 98.3678 97.146 97.1095 97.146 95.6095ZM101.999 95.6095C101.999 92.7428 102.466 90.5095 103.399 88.9095C104.333 87.2928 105.966 86.4845 108.299 86.4845C110.616 86.4845 112.241 87.2928 113.174 88.9095C114.108 90.5095 114.574 92.7428 114.574 95.6095C114.574 98.5261 114.108 100.793 113.174 102.409C112.241 104.026 110.616 104.834 108.299 104.834C105.966 104.834 104.333 104.026 103.399 102.409C102.466 100.793 101.999 98.5261 101.999 95.6095ZM112.324 95.6095C112.324 94.1595 112.224 92.9345 112.024 91.9345C111.841 90.9178 111.449 90.1011 110.849 89.4845C110.266 88.8678 109.416 88.5595 108.299 88.5595C107.166 88.5595 106.299 88.8678 105.699 89.4845C105.116 90.1011 104.724 90.9178 104.524 91.9345C104.341 92.9345 104.249 94.1595 104.249 95.6095C104.249 97.1095 104.341 98.3678 104.524 99.3845C104.724 100.401 105.116 101.218 105.699 101.834C106.299 102.451 107.166 102.759 108.299 102.759C109.416 102.759 110.266 102.451 110.849 101.834C111.449 101.218 111.841 100.401 112.024 99.3845C112.224 98.3678 112.324 97.1095 112.324 95.6095ZM118.278 104.984C117.844 104.984 117.478 104.834 117.178 104.534C116.878 104.234 116.728 103.868 116.728 103.434C116.728 103.001 116.878 102.634 117.178 102.334C117.478 102.034 117.844 101.884 118.278 101.884C118.694 101.884 119.044 102.034 119.328 102.334C119.628 102.634 119.778 103.001 119.778 103.434C119.778 103.868 119.628 104.234 119.328 104.534C119.044 104.834 118.694 104.984 118.278 104.984ZM121.907 95.6095C121.907 92.7428 122.373 90.5095 123.307 88.9095C124.24 87.2928 125.873 86.4845 128.207 86.4845C130.523 86.4845 132.148 87.2928 133.082 88.9095C134.015 90.5095 134.482 92.7428 134.482 95.6095C134.482 98.5261 134.015 100.793 133.082 102.409C132.148 104.026 130.523 104.834 128.207 104.834C125.873 104.834 124.24 104.026 123.307 102.409C122.373 100.793 121.907 98.5261 121.907 95.6095ZM132.232 95.6095C132.232 94.1595 132.132 92.9345 131.932 91.9345C131.748 90.9178 131.357 90.1011 130.757 89.4845C130.173 88.8678 129.323 88.5595 128.207 88.5595C127.073 88.5595 126.207 88.8678 125.607 89.4845C125.023 90.1011 124.632 90.9178 124.432 91.9345C124.248 92.9345 124.157 94.1595 124.157 95.6095C124.157 97.1095 124.248 98.3678 124.432 99.3845C124.632 100.401 125.023 101.218 125.607 101.834C126.207 102.451 127.073 102.759 128.207 102.759C129.323 102.759 130.173 102.451 130.757 101.834C131.357 101.218 131.748 100.401 131.932 99.3845C132.132 98.3678 132.232 97.1095 132.232 95.6095ZM137.085 95.6095C137.085 92.7428 137.551 90.5095 138.485 88.9095C139.418 87.2928 141.051 86.4845 143.385 86.4845C145.701 86.4845 147.326 87.2928 148.26 88.9095C149.193 90.5095 149.66 92.7428 149.66 95.6095C149.66 98.5261 149.193 100.793 148.26 102.409C147.326 104.026 145.701 104.834 143.385 104.834C141.051 104.834 139.418 104.026 138.485 102.409C137.551 100.793 137.085 98.5261 137.085 95.6095ZM147.41 95.6095C147.41 94.1595 147.31 92.9345 147.11 91.9345C146.926 90.9178 146.535 90.1011 145.935 89.4845C145.351 88.8678 144.501 88.5595 143.385 88.5595C142.251 88.5595 141.385 88.8678 140.785 89.4845C140.201 90.1011 139.81 90.9178 139.61 91.9345C139.426 92.9345 139.335 94.1595 139.335 95.6095C139.335 97.1095 139.426 98.3678 139.61 99.3845C139.81 100.401 140.201 101.218 140.785 101.834C141.385 102.451 142.251 102.759 143.385 102.759C144.501 102.759 145.351 102.451 145.935 101.834C146.535 101.218 146.926 100.401 147.11 99.3845C147.31 98.3678 147.41 97.1095 147.41 95.6095ZM152.263 95.6095C152.263 92.7428 152.73 90.5095 153.663 88.9095C154.596 87.2928 156.23 86.4845 158.563 86.4845C160.88 86.4845 162.505 87.2928 163.438 88.9095C164.371 90.5095 164.838 92.7428 164.838 95.6095C164.838 98.5261 164.371 100.793 163.438 102.409C162.505 104.026 160.88 104.834 158.563 104.834C156.23 104.834 154.596 104.026 153.663 102.409C152.73 100.793 152.263 98.5261 152.263 95.6095ZM162.588 95.6095C162.588 94.1595 162.488 92.9345 162.288 91.9345C162.105 90.9178 161.713 90.1011 161.113 89.4845C160.53 88.8678 159.68 88.5595 158.563 88.5595C157.43 88.5595 156.563 88.8678 155.963 89.4845C155.38 90.1011 154.988 90.9178 154.788 91.9345C154.605 92.9345 154.513 94.1595 154.513 95.6095C154.513 97.1095 154.605 98.3678 154.788 99.3845C154.988 100.401 155.38 101.218 155.963 101.834C156.563 102.451 157.43 102.759 158.563 102.759C159.68 102.759 160.53 102.451 161.113 101.834C161.713 101.218 162.105 100.401 162.288 99.3845C162.488 98.3678 162.588 97.1095 162.588 95.6095ZM178.811 105.059C177.761 105.059 176.82 104.884 175.986 104.534C175.153 104.168 174.495 103.668 174.011 103.034C173.528 102.384 173.261 101.643 173.211 100.809H175.561C175.628 101.493 175.945 102.051 176.511 102.484C177.095 102.918 177.853 103.134 178.786 103.134C179.653 103.134 180.336 102.943 180.836 102.559C181.336 102.176 181.586 101.693 181.586 101.109C181.586 100.509 181.32 100.068 180.786 99.7845C180.253 99.4845 179.428 99.1928 178.311 98.9095C177.295 98.6428 176.461 98.3761 175.811 98.1095C175.178 97.8261 174.628 97.4178 174.161 96.8845C173.711 96.3345 173.486 95.6178 173.486 94.7345C173.486 94.0345 173.695 93.3928 174.111 92.8095C174.528 92.2261 175.12 91.7678 175.886 91.4345C176.653 91.0845 177.528 90.9095 178.511 90.9095C180.028 90.9095 181.253 91.2928 182.186 92.0595C183.12 92.8261 183.62 93.8761 183.686 95.2095H181.411C181.361 94.4928 181.07 93.9178 180.536 93.4845C180.02 93.0511 179.32 92.8345 178.436 92.8345C177.62 92.8345 176.97 93.0095 176.486 93.3595C176.003 93.7095 175.761 94.1678 175.761 94.7345C175.761 95.1845 175.903 95.5595 176.186 95.8595C176.486 96.1428 176.853 96.3761 177.286 96.5595C177.736 96.7261 178.353 96.9178 179.136 97.1345C180.12 97.4011 180.92 97.6678 181.536 97.9345C182.153 98.1845 182.678 98.5678 183.111 99.0845C183.561 99.6011 183.795 100.276 183.811 101.109C183.811 101.859 183.603 102.534 183.186 103.134C182.77 103.734 182.178 104.209 181.411 104.559C180.661 104.893 179.795 105.059 178.811 105.059ZM192.478 105.059C191.195 105.059 190.028 104.768 188.978 104.184C187.945 103.601 187.128 102.776 186.528 101.709C185.945 100.626 185.653 99.3761 185.653 97.9595C185.653 96.5595 185.953 95.3261 186.553 94.2595C187.17 93.1761 188.003 92.3511 189.053 91.7845C190.103 91.2011 191.278 90.9095 192.578 90.9095C193.878 90.9095 195.053 91.2011 196.103 91.7845C197.153 92.3511 197.978 93.1678 198.578 94.2345C199.195 95.3011 199.503 96.5428 199.503 97.9595C199.503 99.3761 199.186 100.626 198.553 101.709C197.936 102.776 197.095 103.601 196.028 104.184C194.961 104.768 193.778 105.059 192.478 105.059ZM192.478 103.059C193.295 103.059 194.061 102.868 194.778 102.484C195.495 102.101 196.07 101.526 196.503 100.759C196.953 99.9928 197.178 99.0595 197.178 97.9595C197.178 96.8595 196.961 95.9261 196.528 95.1595C196.095 94.3928 195.528 93.8261 194.828 93.4595C194.128 93.0761 193.37 92.8845 192.553 92.8845C191.72 92.8845 190.953 93.0761 190.253 93.4595C189.57 93.8261 189.02 94.3928 188.603 95.1595C188.186 95.9261 187.978 96.8595 187.978 97.9595C187.978 99.0761 188.178 100.018 188.578 100.784C188.995 101.551 189.545 102.126 190.228 102.509C190.911 102.876 191.661 103.059 192.478 103.059ZM202.324 87.4095H204.849L202.449 93.0845H200.849L202.324 87.4095ZM223.398 90.8845C224.464 90.8845 225.414 91.1095 226.248 91.5595C227.081 91.9928 227.739 92.6511 228.223 93.5345C228.706 94.4178 228.948 95.4928 228.948 96.7595V104.834H226.698V97.0845C226.698 95.7178 226.356 94.6761 225.673 93.9595C225.006 93.2261 224.098 92.8595 222.948 92.8595C221.764 92.8595 220.823 93.2428 220.123 94.0095C219.423 94.7595 219.073 95.8511 219.073 97.2845V104.834H216.823V97.0845C216.823 95.7178 216.481 94.6761 215.798 93.9595C215.131 93.2261 214.223 92.8595 213.073 92.8595C211.889 92.8595 210.948 93.2428 210.248 94.0095C209.548 94.7595 209.198 95.8511 209.198 97.2845V104.834H206.923V91.1345H209.198V93.1095C209.648 92.3928 210.248 91.8428 210.998 91.4595C211.764 91.0761 212.606 90.8845 213.523 90.8845C214.673 90.8845 215.689 91.1428 216.573 91.6595C217.456 92.1761 218.114 92.9345 218.548 93.9345C218.931 92.9678 219.564 92.2178 220.448 91.6845C221.331 91.1511 222.314 90.8845 223.398 90.8845Z" fill="#CCCCCC"/>
<path opacity="0.05" d="M14.4834 37.9019V19.8419H48.2234V121.902H28.0634V37.9019H14.4834ZM60.746 99.7819C69.706 92.3152 76.846 86.1085 82.166 81.1619C87.486 76.1219 91.9194 70.8952 95.466 65.4819C99.0127 60.0685 100.786 54.7485 100.786 49.5219C100.786 44.7619 99.666 41.0285 97.426 38.3219C95.186 35.6152 91.7327 34.2618 87.066 34.2618C82.3994 34.2618 78.806 35.8485 76.286 39.0219C73.766 42.1019 72.4594 46.3485 72.366 51.7618H53.326C53.6993 40.5618 57.0127 32.0685 63.266 26.2819C69.6127 20.4952 77.6394 17.6018 87.346 17.6018C97.986 17.6018 106.153 20.4485 111.846 26.1419C117.539 31.7419 120.386 39.1619 120.386 48.4019C120.386 55.6819 118.426 62.6352 114.506 69.2619C110.586 75.8885 106.106 81.6752 101.066 86.6219C96.026 91.4752 89.446 97.3552 81.326 104.262H122.626V120.502H53.466V105.942L60.746 99.7819Z" fill="white"/>
</svg>
