<svg width="70" height="51" viewBox="0 0 70 51" fill="none" xmlns="http://www.w3.org/2000/svg">
<path fill-rule="evenodd" clip-rule="evenodd" d="M15.3908 6.57901C15.5054 5.71142 15.5973 4.77026 15.7164 3.9145C15.7579 3.61612 15.7884 3.32832 15.825 3.03008L15.9068 2.36724C15.9218 2.25964 15.9073 2.17051 15.9583 2.17051H17.5268L17.6488 3.16564C17.6899 3.50076 17.7232 3.82509 17.7701 4.16153C17.8168 4.49749 17.846 4.81974 17.8927 5.15583C17.9395 5.4922 17.9729 5.81653 18.014 6.15179L18.381 9.13607C18.4009 9.28747 18.4075 9.25744 18.2489 9.25696H17.4139L17.2641 7.70285C17.2563 7.64223 17.2446 7.55864 17.2446 7.48536H16.2178C16.2061 7.62542 16.1808 7.7845 16.173 7.92573C16.1591 8.17512 16.1153 8.54657 16.0926 8.81582C16.0808 8.95643 16.0602 9.11655 16.0486 9.25696H15.0669L15.1184 8.80067C15.2179 8.08157 15.2948 7.30524 15.3907 6.57922L15.3908 6.57901ZM16.437 5.30087C16.4156 5.45206 16.4143 5.59205 16.3951 5.74422L16.3081 6.63887H17.1544L16.898 3.70199C16.8899 3.64248 16.8844 3.53502 16.8836 3.47931C16.8816 3.33476 16.8498 3.17581 16.8498 3.02801H16.6354C16.589 3.02801 16.6005 3.07022 16.6012 3.1181L16.5782 3.46748C16.545 3.901 16.4975 4.41964 16.4772 4.84465L16.437 5.30094V5.30087ZM23.4281 5.70228C23.4281 6.29074 23.4431 6.8758 23.4503 7.46308C23.4512 7.53491 23.4622 7.58964 23.4621 7.67704C23.4619 7.84325 23.4654 8.15353 23.5258 8.27906C23.641 8.51869 23.9011 8.5346 24.1617 8.5346H29.2168C29.3606 8.5346 29.5021 8.52609 29.6104 8.4881C29.693 8.45904 29.7532 8.41565 29.8054 8.34459C29.9208 8.18751 29.9023 7.88422 29.9048 7.68783C29.9056 7.61781 29.9167 7.56985 29.9165 7.48522C29.9152 6.93185 29.9391 6.32741 29.9391 5.77003C29.9391 5.61322 29.9278 5.49794 29.9278 5.34128L29.9165 4.04362C29.9166 3.89602 29.9051 3.77216 29.9052 3.61487C29.9055 3.18481 29.8568 2.89273 29.3298 2.89273H24.0263C23.7433 2.89273 23.5573 3.00144 23.4978 3.22183C23.477 3.29892 23.4615 3.53626 23.462 3.61473C23.4628 3.7651 23.4507 3.88121 23.4509 4.02113C23.4514 4.56779 23.4282 5.15002 23.4282 5.70235L23.4281 5.70228ZM48.7848 5.08352L48.6363 6.63887H49.4826L49.4379 6.18715C49.4163 5.79833 49.344 5.34661 49.3246 4.9463C49.3222 4.89655 49.3147 4.89945 49.3132 4.84486C49.3115 4.77822 49.3074 4.67968 49.2973 4.61263L49.1939 3.24902C49.1857 3.19339 49.178 3.08032 49.178 3.02808H48.9409C48.9309 3.07098 48.9192 3.20391 48.9181 3.25352L48.8726 3.94141C48.8447 4.2973 48.8214 4.73483 48.7847 5.08359L48.7848 5.08352ZM52.2245 3.02801V5.86026H52.5293C53.0828 5.86026 53.2414 5.68775 53.2401 5.17195C53.2399 5.08047 53.2517 5.02456 53.2517 4.94672V3.93041C53.2517 3.85416 53.2398 3.80503 53.2401 3.71638C53.2423 2.96525 52.8611 3.02801 52.2245 3.02801ZM18.8583 6.63887H19.7384C19.7908 6.63887 19.7607 6.70613 19.7607 6.77401C19.7607 6.82972 19.7648 6.90023 19.7603 6.9542C19.7347 7.26511 19.7569 7.61379 19.7605 7.9256C19.7652 8.31905 19.937 8.53952 20.3463 8.52983C20.8242 8.51841 20.8568 8.26716 20.899 7.88975C20.9064 7.82415 20.8949 7.7562 20.9037 7.69129C20.925 7.53595 20.9002 7.34199 20.9007 7.19176L20.8877 6.88867C20.8702 6.72502 20.8228 6.50414 20.7447 6.39979C20.4777 6.04322 19.4711 6.21683 19.059 5.55794C18.7535 5.0694 18.8131 4.29917 18.8131 3.69376C18.8131 3.20501 18.9023 2.76174 19.1315 2.50017C19.1927 2.43049 19.2462 2.37361 19.3356 2.3206C19.5596 2.18809 19.8675 2.11882 20.1802 2.1027H20.4694C20.6911 2.11412 20.9027 2.15148 21.0744 2.21113C21.2584 2.27507 21.4026 2.38004 21.5136 2.51664C21.9333 3.03347 21.8147 4.0277 21.8147 4.73179H20.8894C20.8894 4.48974 20.9008 4.28609 20.9008 4.04348C20.9008 3.75998 20.9345 3.26245 20.7947 3.07755C20.6355 2.86692 20.2439 2.85086 20.024 2.95238C19.9417 2.9905 19.8899 3.05154 19.8512 3.12945C19.8083 3.21567 19.7894 3.294 19.7752 3.40313C19.7679 3.45966 19.7707 3.52512 19.7642 3.57266C19.7568 3.62643 19.7611 3.68414 19.7611 3.73894C19.7611 4.12728 19.7306 4.6192 19.869 4.95128C20.0552 5.39851 20.8614 5.1887 21.4052 5.64921C21.7757 5.96274 21.8599 6.57334 21.8599 7.10152C21.8599 7.94414 21.9203 8.88336 21.1283 9.20201C20.9511 9.27336 20.7247 9.31321 20.4905 9.32435H20.2104C19.9894 9.3139 19.7759 9.27889 19.6044 9.22153C19.2652 9.10825 19.0806 8.88765 18.958 8.55889C18.8048 8.14765 18.8295 7.46073 18.8354 6.98818C18.8363 6.91518 18.8585 6.77 18.8585 6.6388L18.8583 6.63887ZM22.5346 8.18682C22.4999 7.90172 22.5014 7.5693 22.503 7.27071C22.5035 7.16512 22.4915 7.0827 22.4915 6.9661C22.4917 6.55251 22.4836 6.10667 22.4836 5.71356C22.4836 5.32045 22.4915 4.87468 22.4915 4.46116C22.4915 4.25343 22.5029 4.05953 22.5029 3.84059C22.5029 3.32314 22.5303 2.71959 22.9413 2.3833C23.1843 2.18428 23.5959 2.10284 23.9247 2.10284H29.4312C29.9006 2.10284 30.4176 2.22656 30.6536 2.65206C30.7226 2.77647 30.7751 2.93009 30.8071 3.08523C30.8314 3.20266 30.8493 3.35863 30.8526 3.49115C30.8541 3.54879 30.8646 3.56055 30.8646 3.6258C30.8648 3.72365 30.8646 3.82191 30.8642 3.91969C30.8637 4.01642 30.8756 4.09268 30.8756 4.2016C30.8756 4.59741 30.8869 4.96298 30.8869 5.36384L30.8756 7.24829C30.8756 7.3588 30.8638 7.42509 30.8642 7.53034C30.8654 7.84118 30.8607 8.04475 30.8048 8.35102C30.7505 8.64975 30.6118 8.91609 30.3678 9.08756C30.1561 9.23647 29.7949 9.32442 29.4312 9.32442H23.9247C23.117 9.32442 22.6325 8.99006 22.5347 8.18682H22.5346ZM31.6116 8.37386C31.5334 8.04012 31.5296 7.4208 31.5408 7.04464L31.563 6.75083C31.5665 6.69796 31.5456 6.6388 31.5976 6.6388H32.4777C32.4777 6.72447 32.4659 6.76204 32.4662 6.84169L32.4551 7.24822C32.4557 7.47851 32.4523 8.02808 32.5129 8.20605C32.5495 8.314 32.5919 8.38292 32.6827 8.44243C32.8414 8.54657 33.1767 8.55308 33.3432 8.47461C33.6299 8.33967 33.6174 7.89051 33.6174 7.54148C33.6174 7.19598 33.6314 6.64537 33.4404 6.38706C33.344 6.25697 33.1797 6.22189 33.0057 6.17843C32.8301 6.13449 32.6674 6.09422 32.4954 6.04557C32.2509 5.97651 31.9477 5.82511 31.8027 5.61004C31.4635 5.10725 31.5186 4.37411 31.5186 3.75008C31.5186 3.40576 31.5535 2.97888 31.714 2.69302C31.7511 2.6268 31.7634 2.59075 31.8214 2.51837C31.9349 2.37658 32.0867 2.27417 32.2788 2.20836C32.4594 2.14636 32.7034 2.1027 32.9404 2.1027C33.4054 2.1027 33.8855 2.13322 34.2069 2.49491C34.5884 2.92407 34.5314 3.71804 34.5314 4.31439C34.5314 4.46794 34.5201 4.57935 34.5201 4.73179H33.5948C33.5948 4.41722 33.64 3.45509 33.5738 3.22944C33.5474 3.13893 33.4986 3.05506 33.4279 3.00296L33.2889 2.92767C33.0801 2.85252 32.6717 2.86678 32.5452 3.15208C32.4492 3.36908 32.4656 3.88329 32.466 4.17932C32.4661 4.2472 32.4774 4.26118 32.4781 4.32518C32.4811 4.57118 32.491 4.78763 32.6015 5.00304C32.8132 5.4156 33.9616 5.16988 34.3546 5.9579C34.4929 6.23496 34.5652 6.61161 34.5652 7.02243C34.5652 7.46073 34.5828 7.9193 34.5004 8.33428C34.4549 8.56374 34.3898 8.7031 34.2698 8.88232C34.0543 9.20388 33.5435 9.32435 33.1434 9.32435C32.3599 9.32435 31.8034 9.19087 31.6115 8.37386H31.6116ZM35.4656 8.85284C35.31 8.62013 35.2275 8.28888 35.2194 8.01583L35.1972 5.02519L35.208 3.63688C35.2088 3.57411 35.2196 3.56498 35.2202 3.50243C35.2236 3.1617 35.3145 2.80706 35.5228 2.55241C35.5372 2.53491 35.5457 2.52813 35.5598 2.51055C35.6737 2.36869 35.844 2.27493 36.0144 2.20906C36.3684 2.07204 37.0703 2.07108 37.3976 2.193C37.5034 2.23244 37.6892 2.30642 37.7726 2.38205C37.8455 2.44813 37.8923 2.48252 37.9529 2.57428C38.0367 2.70091 38.0874 2.80415 38.1324 2.95895C38.2567 3.38576 38.2212 3.97484 38.2212 4.44974C38.2212 4.55956 38.2099 4.6237 38.2099 4.73179H37.2508L37.2621 3.56962C37.2621 3.31552 37.2473 3.09298 37.0456 2.97369C36.9906 2.94116 36.9118 2.9157 36.8418 2.90664C36.5069 2.86325 36.2488 2.95542 36.185 3.3048L36.1672 3.55799C36.1645 3.64615 36.1674 3.74019 36.1674 3.82911C36.1676 3.93193 36.1555 3.99567 36.156 4.08853L36.145 4.88983C36.145 5.44431 36.1273 6.2378 36.1562 6.77415L36.1558 7.36129C36.156 7.43402 36.1681 7.46225 36.1677 7.54127C36.1646 8.0716 36.1117 8.53447 36.7317 8.53447C37.1426 8.53447 37.2958 8.32528 37.2958 7.9139V6.65008H38.255C38.255 7.03385 38.2805 7.7625 38.2344 8.13035C38.2024 8.38597 38.1396 8.61812 38.0271 8.79195C37.9649 8.88813 37.9112 8.95671 37.8235 9.0284C37.7768 9.06666 37.7498 9.08299 37.6976 9.11683C37.5059 9.24104 37.1745 9.31135 36.8293 9.32435H36.595C36.2575 9.31169 35.934 9.2436 35.7429 9.11704C35.6196 9.03532 35.5474 8.97525 35.4655 8.85277L35.4656 8.85284ZM38.9547 9.22277V2.20428C38.9547 2.17833 38.9625 2.17044 38.9886 2.17044H39.9139V5.23963H40.9407V2.17044H41.8998V9.25668H40.9407V6.09712H39.9139V9.25668H38.9886C38.9625 9.25668 38.9547 9.24879 38.9547 9.22277ZM42.7235 9.25668V2.17044H43.6489C43.6748 2.17044 43.6826 2.17833 43.6826 2.20428V9.22277C43.6826 9.24879 43.6748 9.25668 43.6489 9.25668H42.7235ZM44.4951 9.25668V2.17044H45.4543V8.39905H47.034V9.25668H44.4951ZM48.0461 3.91609L48.249 2.25701C48.254 2.2112 48.2398 2.17044 48.2866 2.17044H49.855C49.8565 2.23833 49.8786 2.3534 49.8867 2.42073L49.978 3.1644C49.9941 3.33531 50.0159 3.49627 50.039 3.66774C50.1051 4.16174 50.1536 4.66889 50.2209 5.15583C50.2674 5.49199 50.301 5.81542 50.3422 6.15165C50.3823 6.47799 50.4272 6.81505 50.4643 7.14671C50.483 7.31361 50.5019 7.47664 50.5255 7.64971C50.5933 8.14675 50.6408 8.64082 50.7092 9.13607C50.7298 9.28574 50.7361 9.2573 50.5771 9.25682H49.7421C49.7307 9.11911 49.7031 8.95671 49.6971 8.81665C49.6911 8.67584 49.6677 8.51011 49.6537 8.37483L49.5729 7.48522H48.5461L48.4801 8.1527C48.472 8.22993 48.4731 8.29511 48.4622 8.37178L48.4216 8.81638C48.4137 8.95754 48.3884 9.11669 48.3768 9.25675H47.3951L47.6095 7.47388C47.6423 7.17854 47.6802 6.86812 47.7189 6.57901C47.759 6.27967 47.7877 5.99423 47.8274 5.69439C47.9042 5.11134 47.9692 4.49859 48.0462 3.91616L48.0461 3.91609ZM51.2654 9.22277V2.20428C51.2654 2.17833 51.2733 2.17044 51.2993 2.17044H52.4841C52.8 2.17044 53.0936 2.18823 53.3458 2.25653C54.0647 2.45159 54.2016 3.12149 54.1992 3.77271C54.1988 3.8655 54.2112 3.91055 54.2106 3.99823C54.2102 4.07718 54.2105 4.15634 54.2105 4.2353C54.2105 4.90423 54.2734 5.78947 53.9011 6.26174C53.8257 6.35765 53.6619 6.50989 53.5448 6.53715C53.5491 6.58981 53.5764 6.66544 53.5912 6.71644C53.6069 6.77021 53.6217 6.82377 53.6389 6.88307C53.6983 7.08845 54.3067 9.19357 54.312 9.25661H53.2965L52.7097 6.9998C52.696 6.94486 52.6841 6.89642 52.6692 6.83719C52.6502 6.76163 52.648 6.70641 52.6082 6.70641H52.2244V9.25661H51.2992C51.2733 9.25661 51.2654 9.24872 51.2654 9.2227L51.2654 9.22277ZM57.5765 -0.000488281H11.8023C11.0407 -0.000488281 10.4175 0.622566 10.4175 1.38429V10.043C10.4175 10.8046 11.0406 11.4278 11.8023 11.4278H57.5765C58.3382 11.4278 58.9614 10.8047 58.9614 10.043V1.38429C58.9614 0.622635 58.3382 -0.000488281 57.5765 -0.000488281Z" fill="#7A7A7A"/>
<path d="M12.4883 40.0347H15.4947C16.2656 40.0347 16.651 40.4202 16.651 41.1911V44.7063C16.651 48.7149 14.6467 50.7192 10.6381 50.7192H6.01284C2.00424 50.7192 0 48.7149 0 44.7063V19.7296C0 15.721 2.0043 13.7168 6.01284 13.7168H10.6381C14.6467 13.7168 16.651 15.7211 16.651 19.7296V23.2449C16.651 24.0158 16.2656 24.4012 15.4947 24.4012H12.4883C11.7174 24.4012 11.332 24.0158 11.332 23.2449V22.1811C11.332 20.8551 11.1623 19.9995 10.8232 19.6141C10.484 19.2287 9.65139 19.0359 8.32549 19.0359C7.1845 19.0359 6.39827 19.2132 5.96655 19.5679C5.53483 19.9224 5.319 20.7936 5.319 22.1811V42.2549C5.319 43.6424 5.53483 44.5136 5.96655 44.8682C6.39821 45.2227 7.1845 45.4 8.32549 45.4C8.91132 45.4 9.33529 45.3846 9.59741 45.3538C9.85953 45.323 10.1525 45.2151 10.4762 45.03C10.8 44.8451 11.0236 44.529 11.1469 44.0818C11.2702 43.6347 11.3319 43.0257 11.3319 42.2549V41.1911C11.3319 40.4202 11.7174 40.0347 12.4883 40.0347ZM18.5015 49.1004V14.8731C18.5015 14.1022 18.887 13.7168 19.6578 13.7168H22.6642C23.4351 13.7168 23.8205 14.1022 23.8205 14.8731V44.0125C23.8205 44.5367 23.9208 44.899 24.1212 45.0994C24.3217 45.2999 24.6839 45.4001 25.2082 45.4001H30.3423C31.1131 45.4001 31.4985 45.7855 31.4985 46.5565V49.5629C31.4985 50.3337 31.1131 50.7192 30.3423 50.7192H20.1203C19.5036 50.7192 19.0796 50.6035 18.8484 50.3723C18.6171 50.141 18.5015 49.7171 18.5015 49.1004ZM44.2647 41.7924V14.8731C44.2647 14.1022 44.6502 13.7168 45.421 13.7168H48.4274C49.1984 13.7168 49.5838 14.1022 49.5838 14.8731V44.7063C49.5838 48.7149 47.5795 50.7192 43.5709 50.7192H38.8994C34.8907 50.7192 32.8865 48.7149 32.8865 44.7063V14.8731C32.8865 14.1022 33.2719 13.7168 34.0428 13.7168H37.0492C37.8201 13.7168 38.2056 14.1022 38.2056 14.8731V41.7924C38.2056 43.2108 38.4214 44.1667 38.8531 44.66C39.2848 45.1534 40.0248 45.4001 41.0733 45.4001H41.3507C42.4608 45.4001 43.224 45.1612 43.6403 44.6832C44.0565 44.2053 44.2647 43.2417 44.2647 41.7924ZM52.3594 49.1004V15.3357C52.3594 14.719 52.4751 14.2949 52.7063 14.0637C52.9376 13.8325 53.3616 13.7168 53.9783 13.7168H62.5814C66.59 13.7168 68.5942 15.7211 68.5942 19.7296V27.8702C68.5942 28.6103 68.3321 29.5045 67.8078 30.5529C67.6537 30.8304 67.6845 31.0926 67.9004 31.3392C68.8871 32.3876 69.3805 33.621 69.3805 35.0394V44.7063C69.3805 48.7149 67.3762 50.7192 63.3676 50.7192H53.9783C52.899 50.7192 52.3594 50.1796 52.3594 49.1004ZM61.1937 34.1144H59.0661C58.5419 34.1144 58.1796 34.2146 57.9791 34.4151C57.7787 34.6155 57.6784 34.9778 57.6784 35.502V44.0126C57.6784 44.5367 57.7787 44.8991 57.9791 45.0995C58.1796 45.3 58.5418 45.4002 59.0661 45.4002H60.6849C61.9184 45.4002 62.7895 45.2152 63.2982 44.8451C63.8071 44.4751 64.0613 43.6117 64.0613 42.2549V37.2596C64.0613 35.9954 63.8378 35.1628 63.3908 34.762C62.9436 34.3611 62.2113 34.1453 61.1937 34.1144ZM59.8986 19.0359H59.0661C58.5419 19.0359 58.1796 19.1361 57.9791 19.3366C57.7787 19.537 57.6784 19.8993 57.6784 20.4236V27.4077C57.6784 27.9011 57.7787 28.2557 57.9791 28.4716C58.1796 28.6874 58.5418 28.7953 59.0661 28.7953H59.8986C61.1321 28.7953 62.0031 28.6103 62.5119 28.2402C63.0208 27.8702 63.2751 27.0068 63.2751 25.65V22.181C63.2751 20.8243 63.0207 19.9609 62.5119 19.5908C62.0031 19.2208 61.132 19.0359 59.8986 19.0359Z" fill="#7A7A7A"/>
</svg>
