<svg width="22" height="22" viewBox="0 0 22 22" fill="none" xmlns="http://www.w3.org/2000/svg">
<path fill-rule="evenodd" clip-rule="evenodd" d="M6.45662 0.134514C4.66595 0.215309 3.11389 0.653105 1.86064 1.90107C0.603014 3.15558 0.170656 4.71379 0.0896592 6.48583C0.03931 7.59186 -0.255106 15.9476 0.598638 18.139C1.17437 19.6173 2.30828 20.754 3.80015 21.3315C4.49627 21.6023 5.29093 21.7856 6.45662 21.8391C16.2035 22.2802 19.8166 22.0401 21.3402 18.139C21.6105 17.4445 21.7966 16.6506 21.8481 15.4878C22.2935 5.71589 21.7758 3.59777 20.0771 1.90107C18.7297 0.55702 17.1448 -0.357901 6.45662 0.134514ZM6.54635 19.8738C5.47917 19.8258 4.90017 19.648 4.5138 19.4984C3.54184 19.1206 2.81179 18.3936 2.43636 17.4273C1.7862 15.7622 2.00183 7.85408 2.05984 6.57445C2.11676 5.32103 2.37069 4.17548 3.25508 3.29111C4.34962 2.19927 5.76376 1.66417 15.3924 2.09872C16.649 2.15549 17.7972 2.40891 18.6837 3.29111C19.7783 4.38293 20.3212 5.80795 19.879 15.3997C19.8308 16.4642 19.6524 17.0419 19.5025 17.4273C18.5119 19.9658 16.233 20.3182 6.54635 19.8738ZM15.4986 5.1581C15.4986 5.8809 16.0864 6.46864 16.8121 6.46864C17.5378 6.46864 18.1266 5.8809 18.1266 5.1581C18.1266 4.43531 17.5378 3.84809 16.8121 3.84809C16.0864 3.84809 15.4986 4.43531 15.4986 5.1581ZM5.34893 10.9863C5.34893 14.0827 7.86529 16.5932 10.9694 16.5932C14.0735 16.5932 16.5899 14.0827 16.5899 10.9863C16.5899 7.88984 14.0735 5.381 10.9694 5.381C7.86529 5.381 5.34893 7.88984 5.34893 10.9863ZM7.3213 10.9863C7.3213 8.97731 8.95436 7.34735 10.9694 7.34735C12.9845 7.34735 14.6175 8.97731 14.6175 10.9863C14.6175 12.9963 12.9845 14.6268 10.9694 14.6268C8.95436 14.6268 7.3213 12.9963 7.3213 10.9863Z" fill="#C8C8C8"/>
</svg>
