<svg width="23" height="22" viewBox="0 0 23 22" fill="none" xmlns="http://www.w3.org/2000/svg">
<path d="M15.9001 6.90191C15.9044 6.90191 15.9102 6.90191 15.9159 6.90191C16.0661 6.90191 16.2056 6.9466 16.3199 7.0236L16.3177 7.02223C16.4011 7.09166 16.4571 7.18929 16.4708 7.29929V7.30135C16.4852 7.38523 16.4931 7.48148 16.4931 7.57979C16.4931 7.62448 16.4916 7.66848 16.488 7.71248V7.70629C16.3263 9.33498 15.6248 13.2847 15.2683 15.1079C15.1174 15.88 14.8205 16.1385 14.533 16.1632C13.9085 16.2189 13.4341 15.7686 12.8289 15.3891C11.8816 14.7944 11.3461 14.4245 10.4268 13.845C9.3638 13.176 10.0531 12.8069 10.6583 12.206C10.8171 12.0479 13.5706 9.65191 13.6245 9.43466C13.6274 9.4216 13.6289 9.40716 13.6289 9.39204C13.6289 9.33841 13.608 9.2896 13.5742 9.25248C13.5369 9.2291 13.4901 9.21604 13.4413 9.21604C13.4089 9.21604 13.378 9.22223 13.3493 9.23254L13.3507 9.23185C13.2558 9.25248 11.7426 10.209 8.81108 12.1015C8.49123 12.3428 8.0873 12.4954 7.64742 12.5133H7.64311C7.01995 12.4411 6.4543 12.3084 5.91739 12.1194L5.97058 12.1359C5.29639 11.9255 4.76092 11.8148 4.80692 11.4587C4.83136 11.2735 5.09826 11.084 5.60761 10.8901C8.74519 9.58248 10.8375 8.72058 11.8845 8.30441C13.0395 7.71798 14.3785 7.23535 15.7865 6.92254L15.8994 6.90123L15.9001 6.90191ZM11.4496 0.704102C5.48255 0.717852 0.650391 5.34816 0.650391 11.0579C0.650391 16.7758 5.4962 21.4116 11.4748 21.4116C17.4533 21.4116 22.2991 16.7765 22.2991 11.0579C22.2991 5.34816 17.467 0.717852 11.5014 0.704102H11.4999C11.4832 0.704102 11.4664 0.704102 11.4496 0.704102Z" fill="#C8C8C8"/>
</svg>
